<mxfile host="app.diagrams.net" modified="2022-04-27T13:38:31.719Z" agent="5.0 (Windows NT 10.0; Win64; x64) AppleWebKit/537.36 (KHTML, like Gecko) Chrome/99.0.4844.84 Safari/537.36 OPR/85.0.4341.72" etag="CdSWkp5_R2_SzTqenAuU" version="17.4.6" type="github">
  <diagram id="EuX7g-8AzffwRQ4VUyoB" name="Page-1">
    <mxGraphModel dx="1361" dy="774" grid="1" gridSize="10" guides="1" tooltips="1" connect="1" arrows="1" fold="1" page="1" pageScale="1" pageWidth="1920" pageHeight="1200" math="0" shadow="0">
      <root>
        <mxCell id="0" />
        <mxCell id="1" parent="0" />
        <mxCell id="W_h7wsD205jmg9Gb9zEZ-4" value="&lt;font style=&quot;font-size: 22px&quot;&gt;Catadores informais de lixo&lt;/font&gt;" style="whiteSpace=wrap;html=1;fillColor=#FFC31F;" parent="1" vertex="1">
          <mxGeometry x="120" y="160" width="120" height="120" as="geometry" />
        </mxCell>
        <mxCell id="W_h7wsD205jmg9Gb9zEZ-5" value="&lt;font style=&quot;font-size: 16px&quot;&gt;Software auto sustentável para conexão de ambas as partes&lt;/font&gt;" style="whiteSpace=wrap;html=1;fillColor=#FFC31F;" parent="1" vertex="1">
          <mxGeometry x="290" y="160" width="120" height="120" as="geometry" />
        </mxCell>
        <mxCell id="W_h7wsD205jmg9Gb9zEZ-6" value="&lt;font style=&quot;font-size: 17px&quot;&gt;Conexão de catadores de lixo a possíveis clientes&lt;/font&gt;" style="whiteSpace=wrap;html=1;fillColor=#FFC31F;" parent="1" vertex="1">
          <mxGeometry x="450" y="160" width="120" height="120" as="geometry" />
        </mxCell>
        <mxCell id="W_h7wsD205jmg9Gb9zEZ-7" value="&lt;font style=&quot;font-size: 11px&quot;&gt;Melhorar a eficiência dos catadores de lixo e diminuir a quantidade de lixo descartado de forma incorreta&lt;/font&gt;" style="whiteSpace=wrap;html=1;fillColor=#FFC31F;" parent="1" vertex="1">
          <mxGeometry x="610" y="160" width="120" height="120" as="geometry" />
        </mxCell>
        <mxCell id="W_h7wsD205jmg9Gb9zEZ-8" value="&lt;font&gt;&lt;font style=&quot;font-size: 16px&quot;&gt;Design Thinking&lt;/font&gt;&lt;br&gt;&lt;/font&gt;" style="whiteSpace=wrap;html=1;fillColor=#FFF717;" parent="1" vertex="1">
          <mxGeometry x="20" y="10" width="80" height="80" as="geometry" />
        </mxCell>
        <mxCell id="W_h7wsD205jmg9Gb9zEZ-9" value="&lt;font&gt;&lt;font style=&quot;font-size: 16px&quot;&gt;Quem?&lt;/font&gt;&lt;br&gt;&lt;/font&gt;" style="whiteSpace=wrap;html=1;fillColor=#FFF717;" parent="1" vertex="1">
          <mxGeometry x="80" y="110" width="70" height="60" as="geometry" />
        </mxCell>
        <mxCell id="W_h7wsD205jmg9Gb9zEZ-10" value="&lt;font&gt;&lt;font style=&quot;font-size: 16px&quot;&gt;O que?&lt;/font&gt;&lt;br&gt;&lt;/font&gt;" style="whiteSpace=wrap;html=1;fillColor=#FFF717;" parent="1" vertex="1">
          <mxGeometry x="260" y="110" width="70" height="60" as="geometry" />
        </mxCell>
        <mxCell id="W_h7wsD205jmg9Gb9zEZ-11" value="&lt;font&gt;&lt;font style=&quot;font-size: 16px&quot;&gt;Como?&lt;/font&gt;&lt;br&gt;&lt;/font&gt;" style="whiteSpace=wrap;html=1;fillColor=#FFF717;" parent="1" vertex="1">
          <mxGeometry x="420" y="110" width="70" height="60" as="geometry" />
        </mxCell>
        <mxCell id="W_h7wsD205jmg9Gb9zEZ-12" value="&lt;font&gt;&lt;font style=&quot;font-size: 16px&quot;&gt;Por que?&lt;/font&gt;&lt;br&gt;&lt;/font&gt;" style="whiteSpace=wrap;html=1;fillColor=#FFF717;" parent="1" vertex="1">
          <mxGeometry x="590" y="110" width="70" height="60" as="geometry" />
        </mxCell>
        <mxCell id="W_h7wsD205jmg9Gb9zEZ-18" value="&lt;font&gt;&lt;font style=&quot;font-size: 16px&quot;&gt;Product Backlog&lt;/font&gt;&lt;br&gt;&lt;/font&gt;" style="whiteSpace=wrap;html=1;fillColor=#FFF717;" parent="1" vertex="1">
          <mxGeometry x="920" y="40" width="80" height="80" as="geometry" />
        </mxCell>
        <mxCell id="W_h7wsD205jmg9Gb9zEZ-19" value="" style="ellipse;whiteSpace=wrap;html=1;aspect=fixed;fontSize=11;fillColor=#FF0303;strokeColor=#FF0303;strokeWidth=4;" parent="1" vertex="1">
          <mxGeometry x="1030" y="45" width="30" height="30" as="geometry" />
        </mxCell>
        <mxCell id="W_h7wsD205jmg9Gb9zEZ-21" value="" style="ellipse;whiteSpace=wrap;html=1;aspect=fixed;fontSize=11;fillColor=#349134;strokeColor=#349134;strokeWidth=4;" parent="1" vertex="1">
          <mxGeometry x="1030" y="85" width="30" height="30" as="geometry" />
        </mxCell>
        <mxCell id="W_h7wsD205jmg9Gb9zEZ-22" value="" style="ellipse;whiteSpace=wrap;html=1;aspect=fixed;fontSize=11;fillColor=#FFC94D;strokeColor=#FFC94D;strokeWidth=4;" parent="1" vertex="1">
          <mxGeometry x="1180" y="45" width="30" height="30" as="geometry" />
        </mxCell>
        <mxCell id="W_h7wsD205jmg9Gb9zEZ-23" value="&lt;font style=&quot;font-size: 18px&quot;&gt;M.V.P&lt;/font&gt;" style="text;html=1;strokeColor=none;fillColor=none;align=left;verticalAlign=middle;whiteSpace=wrap;rounded=0;fontSize=11;" parent="1" vertex="1">
          <mxGeometry x="1070" y="45" width="60" height="30" as="geometry" />
        </mxCell>
        <mxCell id="W_h7wsD205jmg9Gb9zEZ-24" value="&lt;div&gt;&lt;span style=&quot;font-size: 18px&quot;&gt;Importante&lt;/span&gt;&lt;/div&gt;" style="text;html=1;strokeColor=none;fillColor=none;align=left;verticalAlign=middle;whiteSpace=wrap;rounded=0;fontSize=11;" parent="1" vertex="1">
          <mxGeometry x="1070" y="85" width="60" height="30" as="geometry" />
        </mxCell>
        <mxCell id="W_h7wsD205jmg9Gb9zEZ-25" value="&lt;font style=&quot;font-size: 18px&quot;&gt;Secundário&lt;/font&gt;" style="text;html=1;strokeColor=none;fillColor=none;align=left;verticalAlign=middle;whiteSpace=wrap;rounded=0;fontSize=11;" parent="1" vertex="1">
          <mxGeometry x="1220" y="45" width="60" height="30" as="geometry" />
        </mxCell>
        <mxCell id="UbhBKE3H_9LHpFoCL3gv-1" value="&lt;p style=&quot;line-height: 1.1&quot;&gt;&lt;font style=&quot;font-size: 14px ; line-height: 1 ; background-color: rgb(255 , 255 , 255)&quot; color=&quot;#ff0303&quot;&gt;&lt;b&gt;Opção de perfil&lt;br&gt;Sistema de login/cadastro&lt;br&gt;Forma de interação entre ambas as partes&lt;/b&gt;&lt;/font&gt;&lt;/p&gt;&lt;p style=&quot;line-height: 0&quot;&gt;&lt;font style=&quot;font-size: 14px ; line-height: 1 ; background-color: rgb(255 , 255 , 255)&quot; color=&quot;#349134&quot;&gt;&lt;b&gt;Chat de texto&lt;br&gt;Sistema de avaliação (feedback)&lt;br&gt;Mapa inteligente&lt;/b&gt;&lt;/font&gt;&lt;/p&gt;&lt;p style=&quot;line-height: 0&quot;&gt;&lt;font style=&quot;font-size: 14px ; line-height: 1 ; background-color: rgb(255 , 255 , 255)&quot; color=&quot;#ffc94d&quot;&gt;&lt;b&gt;Desenvolvimento de aplicativo&lt;br&gt;Guias para ensinar a forma correta de se descartar o lixo&lt;br&gt;Conectividade com empresa&lt;/b&gt;s&lt;/font&gt;&lt;/p&gt;" style="text;html=1;align=left;verticalAlign=middle;whiteSpace=wrap;rounded=0;fontSize=18;" parent="1" vertex="1">
          <mxGeometry x="920" y="130" width="430" height="250" as="geometry" />
        </mxCell>
        <mxCell id="UbhBKE3H_9LHpFoCL3gv-4" value="&lt;font&gt;&lt;span style=&quot;font-size: 16px&quot;&gt;Team&lt;/span&gt;&lt;br&gt;&lt;/font&gt;" style="whiteSpace=wrap;html=1;fillColor=#FFF717;" parent="1" vertex="1">
          <mxGeometry x="40" y="590" width="80" height="80" as="geometry" />
        </mxCell>
        <mxCell id="UbhBKE3H_9LHpFoCL3gv-6" value="&lt;font style=&quot;font-size: 16px&quot;&gt;Líder: Renato Peixoto Akapohi&lt;br&gt;&lt;br&gt;1. Amanda Lorena de Almeida Correia&lt;br&gt;2. Caio Eduardo de Jesus Araújo Colpo&lt;br&gt;3. Daniel Antônio Miranda Bastos&lt;br&gt;4. Diego Candido Mesquita&lt;br&gt;5. Gustavo Bertonsin Silva Brito&lt;br&gt;6. João Vitor Resende Soares&lt;br&gt;7. Lucas Reis Ribeiro&lt;br&gt;8. Renato Peixoto Akapohi&lt;br&gt;&lt;/font&gt;" style="text;html=1;strokeColor=none;fillColor=none;align=left;verticalAlign=middle;whiteSpace=wrap;rounded=0;labelBackgroundColor=#FFFFFF;fontSize=14;fontColor=#000000;" parent="1" vertex="1">
          <mxGeometry x="30" y="720" width="340" height="130" as="geometry" />
        </mxCell>
        <mxCell id="UbhBKE3H_9LHpFoCL3gv-7" value="" style="shape=flexArrow;endArrow=classic;html=1;rounded=0;fontSize=16;fontColor=#000000;endWidth=61.42857142857143;endSize=30.300000000000004;" parent="1" edge="1">
          <mxGeometry width="50" height="50" relative="1" as="geometry">
            <mxPoint x="1510" y="220" as="sourcePoint" />
            <mxPoint x="1540" y="420" as="targetPoint" />
            <Array as="points">
              <mxPoint x="1650" y="320" />
            </Array>
          </mxGeometry>
        </mxCell>
        <mxCell id="sc4unjQCFMbTbhpWQRbm-22" value="" style="shape=singleArrow;whiteSpace=wrap;html=1;" vertex="1" parent="1">
          <mxGeometry x="770" y="190" width="100" height="60" as="geometry" />
        </mxCell>
        <mxCell id="sc4unjQCFMbTbhpWQRbm-25" value="" style="shape=image;verticalLabelPosition=bottom;labelBackgroundColor=default;verticalAlign=top;aspect=fixed;imageAspect=0;image=data:image/jpeg,/9j/4AAQSkZJRgABAQEAeAB4AAD/2wBDAAMCAgMCAgMDAwMEAwMEBQgFBQQEBQoHBwYIDAoMDAsKCwsNDhIQDQ4RDgsLEBYQERMUFRUVDA8XGBYUGBIUFRT/2wBDAQMEBAUEBQkFBQkUDQsNFBQUFBQUFBQUFBQUFBQUFBQUFBQUFBQUFBQUFBQUFBQUFBQUFBQUFBQUFBQUFBQUFBT/wAARCAJPA1kDASIAAhEBAxEB/8QAHwAAAQUBAQEBAQEAAAAAAAAAAAECAwQFBgcICQoL/8QAtRAAAgEDAwIEAwUFBAQAAAF9AQIDAAQRBRIhMUEGE1FhByJxFDKBkaEII0KxwRVS0fAkM2JyggkKFhcYGRolJicoKSo0NTY3ODk6Q0RFRkdISUpTVFVWV1hZWmNkZWZnaGlqc3R1dnd4eXqDhIWGh4iJipKTlJWWl5iZmqKjpKWmp6ipqrKztLW2t7i5usLDxMXGx8jJytLT1NXW19jZ2uHi4+Tl5ufo6erx8vP09fb3+Pn6/8QAHwEAAwEBAQEBAQEBAQAAAAAAAAECAwQFBgcICQoL/8QAtREAAgECBAQDBAcFBAQAAQJ3AAECAxEEBSExBhJBUQdhcRMiMoEIFEKRobHBCSMzUvAVYnLRChYkNOEl8RcYGRomJygpKjU2Nzg5OkNERUZHSElKU1RVVldYWVpjZGVmZ2hpanN0dXZ3eHl6goOEhYaHiImKkpOUlZaXmJmaoqOkpaanqKmqsrO0tba3uLm6wsPExcbHyMnK0tPU1dbX2Nna4uPk5ebn6Onq8vP09fb3+Pn6/9oADAMBAAIRAxEAPwD9U6KKKACiiigAooooAKKKKACiiigAooooAKKKKACiiigAooooAKKKKACiiigAooooAKKKKACiiigAooooAKKKKACiiigAooooAKKKKACiiigAooooAKKKKACiiigAooooAKKKKACiiigAooooAKKKKACiiigAooooAKKKKACiiigAooooAKKKKACiiigAooooAKKKKACiiigAooooAKKKKACiiigAooooAKKKKACiiigAooooAKKKKACiiigAooooAKKKKACiiigAooooAKKKKACiiigAooooAKKKKACiiigAooooAKKKKACiiigAooooAKKKKACiiigAooooAKKKKACiiigAooooAKKKKACiiigAoopKAFor5d+PX/BSD4JfAS4uNOu/EDeKvEEJKPpHhpVunjYEgrJLuESEEYKl9w/u18E/Fz/gtB8SfEl08PgDw3pXgywxtE19/wATG6J/vZIWNfpsb6mgD9mKK/nF8ZftufHjx5JIdW+KniQRyfehsbw2cR9tkOxf0rzjUvil401mQSah4u16+kC7A1zqc0h2nqMljxQB/UDRX8wekfFzxz4fmWXS/GfiHTpFxh7TVJ4iMDA5Vx0Fep+Cf2+v2gvALodN+KWu3SKAPK1iVdRTAGMYuA+Pw9qAP6KaK/IH4S/8FrfGGkyQ23xF8Fab4htcgPfaHI1ncAc5YxsXRz04BQV+gfwC/bj+D37RzQ2vhbxRHba7IM/2FrCi1vc5PCoTtkPGf3bNjIzQB73RRRQAUUUUAFFFFABRRRQAUUUUAFFFFABRRRQAUUUUAFFFFABRRRQAUUUUAFFFFABRRRQAUUUUAFFFFABRRRQAUUUUAFFFFABRRRQAUUUUAFFFFABRRRQAUUUUAFFFFABRRRQAUUUUAFFFFABRRRQAUUUUAFFFFABRRRQAUUUUAFFFFABRRRQAUUUUAFFFFABRRRQAUUUUAFFFFABRRRQAUUUUAFFFFABRRRQAUUUUAFFFFABRRRQAUUUUAFFFFABRRXin7V37VXhX9k/4azeJNedbzVLjMWk6JHIFmv5vQddqLkFnxgD1JUEA6P49ftCeCP2bvA83ijxvqq2FoCUtrWMb7m8lxkRwx5yzfkAOSQOa/GP9rT/gph8Rf2jJLvRNDlm8C+BHyn9mWExFzeJ0/wBJmGCwI/5ZrhOcHdjNeAfHj4/eMv2jfH954s8Zam95dysRb2qki3sos5WGFM/Ko/Mnkkkk1s/s3fssePv2pPGC6J4N0wm1hIN9rN0GSysUPeR8HLHsi5Y9hgEgA8hr374L/sI/G348W0V94a8E3UGjyYK6trDLZWzKf4kMhDSD/rmGr9df2Z/+Cafwm/Z7htNSvdPTx14vjwzaxrUKtHE/rBbnKR47E7n/ANrtX1oAFAAGAOgoA/I3wL/wRB8Tahp6zeMfifpeiXm4E2mjaZJfqV7jzZJIcH/gBFeu6f8A8ES/hdFCwvvHfi65lwMNb/ZYlB78GJuPxr9FqKAPzj1z/giT8NriGQaP4/8AFVhKd2xr2O2uVXj5chY48478jPtXjPxB/wCCJfjfS4pJfBnxA0XxDgkrb6tayWDkcYAZTKpPXrtHHvx+wVFAH82nxl/ZK+LfwCZn8beCNS0yxH/MThQXNn2x+/iLIDz0JB9q8lgnktZo5oZGiljYMkkbFWUjoQR0Nf1QXNrDeW8lvcRJPBKpR4pFDK6kYIIPBFfDf7U//BKX4d/GSG81vwCkPw+8XMGkEdrHjTbp+uJIR/qyT/FHgDOSrUAfHX7I/wDwVe8afCW4svD3xOe68c+EBiNb52DanZLnqHb/AF6j+65z0wwxiv2F+GfxQ8L/ABh8HWHinwfrNvrmiXq7o7m3boe6Op5Rx0KsAR6V/N38Zvgf4z+AHjS48L+N9Fm0jU4vmjZvmhuI+0kUg4dT6jp0OCCK7f8AZQ/a58Zfsn+Oo9X0G4e90G5kUat4fmkIt72McZ77JACdrgZHfIJBAP6Nq+Kv2u/+ClWm/sn/ABp03wRceD38UWsmmR319dWt+IJrZneQKgRoyr/Kgb7w+8K+l/gf8bfC37QXw30vxr4RvRdaZerh4mI861mH34ZVBO11PUdwQRkEE/z+/tnfE4/F79qL4j+JldZLWbVpLW1dOjW8GIImHA6pEp/HvQB+037Ov/BQ74Q/tL+JLbw14cu9W0zxRcrI8Okatp7JI6orM7CSMvEAFXPLg8gdeK+mq/Ib/giX8Mf7S+IXj7x/PG3laVp8WkWzEHaZJ38yQg+qrAo+klfrzQAUUUUAFFFFABRRRQAUUUUAFFFFABRRRQAUUUUAFFFFABRRRQAUUUUAFFFFABRRRQAUUUUAFFFFABRRRQAUUUUAFFFFABRRRQAUUUUAFFFFABRRRQAUUUUAFFFFABRRRQAUUUUAFFFFABRRRQAUUUUAFFFFABRRRQAUUUUAFFFFABRRRQAUUUUAFFFFABRRRQAUUUUAFFFFABRRRQAUUUUAFFFFABRRRQAUUUUAFFFFABRRRQByvxS+JWg/B34f654y8TXYs9E0e2a5uJONzY4VFB6uzFVUdywFfzt/tP8A7RviL9qD4s6n4y16R4oHYw6bpu/dHYWoJKRLwMnnLNj5mJPtX2R/wWG/agk8WeO7L4O6Hd/8SbQCt5rLROcT3zLlImxwREjA/wC9IQeUFfCfwV+EevfHb4n6B4H8OQ+bqerXAiEhGUgjHMkr+iooZj9MdTQB6z+xR+xh4h/a68fG2QzaR4K01g2sa4qA7AeRDFnhpW/JR8x7Bv3s+Fvwr8L/AAX8D6b4S8H6TDo+iWKbY4Yh8ztj5pJG6u7YyWPJrK+AvwR8Ofs8/C7RfBHhi38ux0+IebcsoEt3OR+8nkI6ux59hgDgAV6FQAUUUUAFFFFABRRRQAV5d8Rv2nvhb8IvGVh4V8aeNNN8M63fW32y3h1ItFG0W5l3GUjy15RhhmB4r1Gv58v+CkXxP/4Wl+1944uYZvOsdHmXRLYg5AW3G1wP+2plP40AftT8avgn8Nf2xPhe+karJYa7p8itJp2t6XPHNJZykECWGVSR1HIzhsYNfgp+01+zb4p/Zc+J154R8Sx+cmPO0/VIkIhv7cnCyJnoezLnKnjngnhPB/j7xN8PdSXUfC/iHVPDt+vS50u8ktpPplCCRXovxM/a2+JXxp8C2vhXx9rEHi60spRNY32pWkZvrRuAdk6BXYMBghywOc9QCADU/ZV/a68Wfsr6t4hk0Rmu9K1vTprS5095NqCcxsILhfR43IPupYdwR4SzFmJJySck0lavhPw3e+MvFGj6BpsRn1HVLyGytolzl5JHCKOPdhQB+6f/AASp+F5+HP7H/h+8niMV94nup9bmDLg7XYRw9gcGKJGH+/X2BWH4F8JWXgHwVoHhnTU8vT9HsINPt144jijVF6AdlHatygAooooAKKKKACiiigAooooAKKKKACiiigAopOnJr4x/bO/4KP8AhH9nW1uvD3huWHxL46ZSv2WBw0NmcdZWHf8A2etAH0R8aP2hPAfwB0BtW8a6/b6VDj93ATvmlPoiDk/lXxjrX/Baj4aWuqNBpvhHX76zVsfapPLi3D1C7ifzxX5Q/Fr4yeLfjd4tufEXi7VptUv5mJAdjsiXsqL0AFcVQB/Qh+z7/wAFCPhH+0ReRaZpOrSaNrsnC6Xq6iGRz6KclW/A19L1/LBp+oXOlXsN5ZzyW11C4eOaJirIwOQQRX7u/wDBNP8Aamuv2iPg++n69cG48U+Hytvcyt96aMj5HPvxg0AfYdFFFABRRRQAUUUUAFFFFABRRRQAUUUUAFFFFABRRRQAUUUUAFFFFABRRRQAUUUUAFFFFABRRRQAUUUUAFFFFABRRRQAUUUUAFFFFABRRRQAUUUUAFFFFABRRRQAUUUUAFFFFABRRRQAUUUUAFFFFABRRRQAUUUUAFFFFABRRRQAUUUUAFFFFABRRRQAVx3xi+JFl8H/AIV+K/GuobWtdD06a9MbHHmMikpHn1Ztqj3YV2NfBP8AwWS+JTeE/wBmfTPC0E3l3PinWIopY8jL20AMz/8AkQQfnQB+Mfi7xVqXjjxVq/iLWblrzVtVu5b27uHOTJLI5Zj+ZNfrZ/wRr/Z1Tw18P9Y+LmrWoGp6+7afpLOpzHZxtiVx/wBdJVx9Ih61+Reg6Ld+Jdd07SLCMzX2oXMdrBGASWkdgqj8SRX9OHwq8AWPwr+GvhjwfpqgWWiadBYRnABfy0ClzjuxBY+5NAHVUUUUAFFFFABRRRQAUUUUAFePfFD9j/4M/GWSafxb8OtE1C9mbfJfwQfZbpzkHLTQlHPTu1ew0UAfnH8Tv+CKnw+1zzZ/AvjPWfC1wx3LbalGmoW46fKMeW4HXks3Wvkf4nf8Ej/jz4D82bRrHSfHNkoLb9FvQkwUAnmKYISeOilq/dSigD+X7xz8L/GPwxvvsfi7wtrHhm5JIWPVbGS3LYJGV3qNw4PIyDivov8A4JefDAfEr9sLwpJPD51j4djm12cehiXbCfwmeI/hX71ato9hr+nzWOp2NtqNlMpWW2u4VljcEYIZWBBH1riPAX7Pfw3+FvizU/Evg/wZpPhnWNSgFtdzaVALdJYw+/HlrhB83OQoJwKAPQ6KKKACiiigAooooAKKKKACiiigAooooAKy/EnibSvB+i3Wra1fwabp1shkluLhwiKo9zXm/wC0R+1F4D/Zl8KvrHi7VEjuHU/ZdMhIa5um/uon9TwK/En9rX9uzxz+1LrU0NxM+heEY3P2bRbaQ7SvZpW/jb9KAPpf9tj/AIKqah4s+3+DfhHcyaZpJ3Q3PiBeJpx0Ii/ug/3utfmtdXU17cSXFxLJPPIxd5ZGLMzHqST1NR0UAFFFFABX6V/8ETVvE+JXjx03mybTI0kH8IbzAQfrxivzg0fR73xBqdtp2nW0l5e3LiOKCFSzOxOAABX7z/8ABOL9le4/Zr+DbS63B5PivX2W6vkbkwqB8kf4A5PvQB9a0UUUAFFFFABRRRQAUUUUAFFFFABRRRQAUUUUAFFFFABRRRQAUUUUAFFFFABRRRQAUUUUAFFFFABRRRQAUUUUAFFFFABRRRQAUUUUAFFFFABRRRQAUUUUAFFFFABRRRQAUUUUAFFFFABRRRQAUUUUAFFFFABRRRQAUUUUAFFFFABRRRQAUUUUAFFFFABX5Df8FvvFLXXxG+GXhwMdljpV1qBXJxmeZY8+n/Lv9a/XmvxY/wCC1LP/AMNPeFg2dg8JW5XL5/5e7vOB2/rQB8/fsB+EYvG/7Yvws06ZQ8UerC/ZWxj/AEaN7gdfeIV/RRX4G/8ABKtUb9tzwOX6rBqBX5M8/Y5u/bjPP4d6/fKgAr5Z/bB+KXjrwh8S/g94R8HeOLH4fweLLy+t7/WdQ02C+ihWKASoxSVlHUFfvr97vjFfU1eKfHb9mHRvj78QPhvrviGayu9G8JXN1cXGgajpiXkGpiaHywj72CqFOG5V8kDp1oA8X+Hf7Y2p/DnUPizo/wASfE2m/EfT/BK6e1p4o8LWCW7ajNdkqlmYlkaITh9oADgYPPTNek+H/wBsW2uD4m0/xL4J1Twh4l0fQZ/EcGk3d/Z3Qv7OIfOY5reWRQwO0MrYI3CseP8AYM8NRfD74ifD2HWPsfgLxLqUesaXpVpp6JLod2rK5McpYrLHvRSI3QADK5IPGt8LP2R5fCen+J7TxZr2geIk1nS30hJNC8G2WhSQQurLIxkhLO7uCM/MF+UYWgDorj9p3TbfR/g1fnRLor8TLqG1tEEq5sjJbmcGTj5gFUjjvXmusft/R6PB4z1QfCjxZfeFPBuszaTrniG1ktTb2wjdVMqK0iySfeyVVflGMnmofB/7D3jDRtf+F0+vfGq68TaD8OtRFzo2jyeHoLceQImjWOSVJNzyBSB5hyMA/Jk5HX3v7If2z4I/Fv4e/wDCWbP+E+1S91L+0v7Nz9h+0MjbPL8395t2ddy5z0FAHP6t8fPDfgn4x/F/XdT8S+Ko9J0bwhpuqNbtcJPp0KT7/Ke0tdoInY4B3HDEgdOmd8DfjpqWg/ECz0f4jxfELw7HrWkS3mgf8JnJp81vPFEoluGZ7Qblm24bZLyq5ArqNQ/Yn0jxDqHjg654invNN8UeFdL8MyW9ra+RLbNZA7blJd7ZYsQwXb8u3q1P8Ifsma9ceNNJ8QfFH4mXHxKGhWFxp2jWK6PDpkVvHPH5Usk3luxmlMfy7vlHU4oAr+C/25NI8Wax4bln8Fa5ovgzxPerYaJ4pu7mzeK6lYkRF7dJmmhSQqdrOgByM4zWp8K/2uf+FyePrnR/DPgPVLrw3bajcaZP4ifVdPUwyQlld3s/P+0qhZSASnOQcYNcv8If2Fx8I/FOjG38UaJq3g3Rp2mstLvfBdg2p7efLjk1Hl3EbEEMEV/lGW4qe1/Ypvr744aP8QvEPjHRr+TSdVbVrdtJ8HWumanO3zbYbm+ictNEA2CCgLADJ6kgH1NRRRQAUUUUAFFFFABRRRQAUUUUAFFFFABRRWP4s8YaN4F0G71rX9St9K0y1QyS3Ny4VVA+tAGuWCgknAHeviH9tL/gpV4Y+AVvd+GvCEkPiPxttKERsGgsz6uR1I/u18qftqf8FVtX8eNf+D/hNLLo2gHdDca9925uh0Ii/uKfXr9K/OS4uJbqeSaeR5ppGLPJIxZmJ6kk9TQB1XxQ+Kvij4xeLLvxH4s1afVtTuGJMkzEhB2VR2A9BXJUUUAFFFHWgArvvgv8DfGPx88YW3h3wdo8+p3khHmSKuIoF7u7dFA9693/AGO/+Ce/jL9pjUoNU1COXw74KjcGXUpkw847rED1Pv0r9sPgj8BfBf7Pvg+Dw74N0eHTrZQPOuNoM9y/9+R+rH9B2oA8G/Y3/wCCeHhD9mmxttZ1dIfEfjhlBkvpEzFbN3WIH/0KvryiigAooooAKKKKACiiigAooooAKKKKACiiigAooooAKKKKACiiigAooooAKKKKACiiigAooooAKKKKACiiigAooooAKKKKACiiigAooooAKKKKACiiigAooooAKKKKACiiigAooooAKKKKACiiigAooooAKKKKACiiigAooooAKKKKACiiigAooooAKKKKACvx5/4LceGTZ/F74d6+Itq6hok1n5v94wTlsfgLgfnX7DV+d/8AwWq8AvrnwH8H+K4ovMfQdbNvKw/ghuYiCfpvhiH4igD89/8AgnP4nh8J/tpfC+7uZGjhnv5bA7TjLT28sKA+2+Ra/oYr+XTwH4wvfh7448P+KNOx/aGi6hBqNvu6GSKRXUH2ytf06+E/Etl4y8LaPr+nSCbT9Us4b23kHRo5EDqfyYUAa1FFFAHI/FT4reGfgv4Mu/FHi3UP7O0m3ZI9yxtLLLK52pFHGoLO7E4CgZr560n9sK4+Inxo13wroIv/AA5o9j4JudbnGveH57XUbO7WQhJDDNs3pswwHRv73WvVf2nPgtqXxt8A2FjoOqW2j+JdF1a113Sri/iMtqbm3fcqTKOdjZIJHIzkdK8t0P4A/GPxR8W9e8efEDUfBUU+oeDLrwzb6d4de68u3kdtyOzyx5dSSSTwV4AU9aALkX7TFz4f/Zz8FakuqeIPG3inxBo322DxHpngm6uoyoxuuprW2GyMAMPkLrnr0zXQ6l+2d8M/A3gXwBrOpeI9S8Q2ni6KRdM1Cx0mSWW8ljA3oYIk3I5Y7Qm3OeD615lafsk/FTQ/B/wl0S317SNV0/wz4b/sTVNDk1/U9NsvtWRi9ie1VXnIGVCShBjoRmtD4Q/sd+LvAK/AddU1LQbz/hAbzWLjUGt5Zz532rf5RgDx5JG75t5GOcFutAHoHhf43mH4kfFW71TxNqWqeH9C07Tb6LwzB4bb7TpqzQl/laLdLcO+RlNvykYrU8L/ALYHw58Q2/ipr2fWfCV14Y0/+1dUsPFOjXOm3MNmc4nEcqAshII+XJz25Fcb44/Zq8fa14m+OmseG/Fdp4au/G9npsGkXtrcTx3EDWyFZVlZFDRB+VDxszAEngjFcf4O/ZD8e6f4x8WeI9Vs/Bciaz4Obw8mh3ur6prNsZzKGzPJcgSPEwzkJsIPAB+9QB9CfCX49aL8Y7i7j0rQfFmkLBAlyk3iLw9dabFcxOfleF5kAkB68HOCDXpVfL37Kv7N3jj4N+NNW1TWL3S9A8NTaelnbeEPD+ualqtiJg5Y3IN9zCdvyhIxjHU8Yr6hoAKKKKACiiq2o6laaPZTXl/dQ2VpCu6S4uJBHGg9WYnAH1oAs0V8e/HT/gqR8FvhALiz0nWF8e61HkC20FxLBu97gZj6/wB0mvz5+L3/AAV0+Nnjy8mi8K3Gn+A9JOVSOwtUnuCv+1LMG5/3QtAH7kUV/Pn4R/4KUftEeEdWjvh8QrrV0DZktNWgiuIZB/dIKgqP9wqfev1A/Yd/4KL6B+1JKPCuv2sXhv4gRRGRbVXJt79VGWaEnow6lDzjkZAOAD7MooooAKKKKAPO/jt8evB37OvgO68WeM9TSxsYz5cEC8z3cuMiKJOrMf0GScCvwt/bA/be8X/tU+LLlpJZtF8HxPix0OOXKhQAN0hH3mPX0GcVqf8ABR79oLUPjn+0r4itvtTyeHPDFzLpGl2+f3YEbbZZQP8AbdSc91C/SvlmgAooooAKKKKACvtD9gP4QfAfxRr0OufFbx5p0V3BKDbeGrhmhR2HRpZGABHsp/Gvi+igD+ozwjeeHX0W0g8Nz6e2lxxqtvHp7oYgmONoXjFblfzBeCvix4z+HNws3hjxRquhup3AWV28a59cA4r65+Dn/BXL4wfD/wAi28UCz8c6emATeKIbgr/voME+5WgD9xKK+Kvgz/wVg+DXxL+z2uu3Vx4I1KTAKaoMwhj281eMe5xX2F4f8TaT4r06K/0bUrXVLKUbkntZVkRge4INAGnRRRQAUUUUAFFFFABRRRQAUUUUAFFFFABRRRQAUUUUAFFFFABRRRQAUUUUAFFFFABRRRQAUUUUAFFFFABRRRQAUUUUAFFFFABRRRQAUUUUAFFFFABRRRQAUUUUAFFFFABRRRQAUUUUAFFFFABRRRQAUUUUAFFFFABRRRQAUUUUAFFFFABRRRQAUUUUAFeX/tNfBu3+PvwI8ZeBplUz6pYOLN3OBHdp88Dk+gkVCfbNeoUUAfyu31jcabe3FndQvb3VvI0UsMgwyOpIZSOxBBFft7/wST/aCj+KX7PK+C7+53+IPBTiz2O2XksXJa3f6Lho+OgjX1r4h/4Kxfszy/CD47P460q12eFvGzvdlkHywagMG4jPpvJEoz1LuB92vn/9kn9pDVf2W/jTpHjOxWS604f6Lq2nocfa7NyPMQcgbhgMuf4lGeM0Af0h0VieCfGejfETwlpHibw/fR6louq2yXdpdRHh42GR9D2IPIIINbdABRRRQAUUUUAFFFFABRRRQAVn654g0zwxpc+paxqFrpenwLuluryZYo0HqWYgCvl39qj/AIKQfDL9m2O50m2uR4y8aqpC6NpcgMcDdvtE3Kp/ujLew61+O/7R37YnxJ/ac1qS58U6w0GkqxNvoliTHaQD/dzlj7tn8KAP0y/aO/4LAeAfh9Je6L8NtPl8da1GNg1N8wabG/IOCRvlI46KFOeGr8vPjt+1d8TP2i9UkuvGXiO4ubTcTFpduTFaQj0WMHH4nJryKigAooooAK3vAXjbVfhv420PxTodw1rq2j3kV7bSqSMOjBgD6g4wR3BIrBqzpmm3Osala2FnE093dSrDDEo5Z2IAA/E0Af1AeAfF1v498E6F4jtBtt9Us4rtF9A6g4/Wt+uM+C/hGXwD8IfBXhuclrjStGtLOZj1aRIVVz+LAn8a7OgApGyVIBwccGlooA/mX/aE8N3Xg/48fEPRL1ClzY+IL6Bs9wJ32kexGCPYivP6/Wr/AIKq/sN3/iy6uvjL4HsWu75IVGv6dAuXkVFCrcIo6kKAGHXjPrX5KkFSQRgigAooooAKKKKACiiigAooooAK9N+D/wC0p8SPgTqcd54N8U3ulqpy1oX8y3kHo0bZBH615lRQB+tP7PX/AAWV0zUpLXSfivoTabK2E/trSxvhz6yRnlR7jNfo34C+I/hn4oeH4Nb8La1Z63pswys9pKHA9jjofY1/L3Xf/B/48+OvgT4gTV/BfiG70ifIMkKOTDMB2dDw1AH9NNFfnT+yn/wVv8OfEGWz8PfFK2h8La0+I01aJj9jnbpls8xk++R71+hun6ja6tZw3dlcxXdrMoeOaFw6OpGQQR1FAFmiiigAooooAKKKKACiiigAooooAKKKKACiiigAooooAKKKKACiiigAooooAKKKKACiiigAooooAKKKKACiiigAooooAKKKKACiiigAooooAKKKKACiiigAooooAKKKKACiiigAooooAKKKKACiiigAooooAKKKKACiiigAooooAKKKKACiiigDyv8Aac+AOj/tMfBrXfAurlYGu086wviu42d2mTFMB7EkEd1Zh3r+db4p/DDxF8GfH2s+DvFVg+na5pUxhnib7rDqrof4kZSGVh1BBr+n2vkj9vr9hXS/2rvCP9r6KlvpvxJ0qHbp9+/ypeRgk/Zpj6Ek7W/hJ9CaAPzx/wCCdH7f037OGtJ4I8b3U1z8NtQlzHLgu2kTseZFHUxMT86jofmAzuDft1pOrWWvaZa6jpt3Df6fdRrNBdW0gkjlRhlWVhwQR3Ffy9eMPB2tfD/xNqXh3xFptxpGtadM0F1Z3SFXjcHkY7juCOCCCOK+mf2M/wDgoX4z/ZTuItDuo38U/D6SXdLos0m2S13HLyWzn7p6koflY/3SS1AH770V5V8Bf2nvhz+0n4fXVPA/iGC/lVQ1zpkxEV7an0khJyOf4hlT2Jr1WgAooooAKKK8h/aU/ag8F/sveB5df8VXge5dSLHSYGH2i8kxwqjsPVjwP0oA9E8ZeM9D+Hvhq/8AEHiTVbXRdFsYzLcXt5KI4419ye5PAHUk4FfkB+2p/wAFUta+KDXvhH4UzXGgeFiTFPrPMd3er0OzvGh/M+1fMf7UX7YXj/8Aaq8TteeJdQa10GCQtp/h+1Yra2o7HH8b46u3PpgcV4ZQA+aeS5meWaRpZXO5ncksxPcmmUUUAFFFFABRXp/wU/Zn+Jf7QurLZeBfCl9rCBgst8VEVpB6l5nwgx6ZyewNfpN8CP8AgjDoGji21D4q+In125GGfSNHZorf/daXhz+GKAPye8N+F9Y8Y6tBpeh6ZdatqM7BY7aziMjsT7Cv1V/4J5/8Ez9U8D+JtO+JnxXs1t9RsiJtJ8PP8zQy9pp+25f4V7Hk9BX6D/DH4IeAfgxpa2HgnwlpPhuHbtd7G1VJZfeSTG9z7sTXcUAFFFFABRRRQA2SNJo2jkUOjAqysMgg9Qa/H/8A4KVf8E+ZPBGoah8UPh3pufD1wxm1TSrVP+PNz96RAP4Cckjtmv2CqC9s4NSs5rW6hjuLaZDHJDIoZXUjBBB6igD+V6iv0A/4KOf8E+7j4M6tdfELwFYyT+CbyUveWUKknTZGOen/ADzJ6elfn/QAUUUUAXNGsI9U1S2tJruKwjmcIbifOyPJ6tgE4r3rxd+wb8YvDOgwa9Y+GJPFHh+eMTRaloLC7jZCM7sJkgfUcV8819z/APBPP9v+9+AOuW/gzxldSXfgO9kCpLIdzae5ONw/2PUUAfE2raHqOg3TW2pWNxY3C8GO4iKMPwIqjX9Lnjj4K/C/9oDw3DLr/hrR/Emn3kQlgvhEu8qwyGSVfmGfY18PfG7/AIIyeGtaWe/+G3iWbRLrll03VF82FvYSDlfxBoA/ISivZvjl+yH8Uf2fdQeLxV4Yuo7HJ8vUrZDLbSD1DjgfQ14z060AFFFFABX07+yr+398RP2ZL63sobpvEXhLcBLot9ISFXv5TdUP6e1fMVFAH7i6d/wV4+DV5p9lINL8UXV3LCsk8FlZwMIGPVCZJkyfcAj3q1/w9s+EP/QueNv/AABs/wD5Kr8OtL1KbSL6G7g2mSJgwWRdytjsQeor9B/2UfiZ8D/jItr4d8VeB9F0TxdgIjEMsF4fVTu+Vv8AZ/KtadP2j5b2OTE4h4eHPyOS8j6+/wCHtnwh/wChc8bf+ANn/wDJVH/D2z4Q/wDQueNv/AGz/wDkqoP+GXfhR/0I2l/98N/jR/wy78Kf+hG0v/vhv8a7PqM+6PE/t6h/I/w/zJ/+Htnwh/6Fzxt/4A2f/wAlUf8AD2z4Q/8AQueNv/AGz/8AkqoP+GXfhT/0I2l/98N/jR/wy78Kf+hG0v8A74b/ABo+oz7oP7eofyP8P8yf/h7Z8If+hc8bf+ANn/8AJVH/AA9s+EP/AELnjb/wBs//AJKqD/hl34U/9CNpf/fDf40f8Mu/Cn/oRtL/AO+G/wAaPqM+6D+3qH8j/D/Mn/4e2fCH/oXPG3/gDZ//ACVR/wAPbPhD/wBC542/8AbP/wCSqg/4Zd+FP/QjaX/3w3+NH/DLvwp/6EbS/wDvhv8AGj6jPug/t6h/I/w/zJ/+Htnwh/6Fzxt/4A2f/wAlUf8AD2z4Q/8AQueNv/AGz/8AkqoP+GXfhT/0I2l/98N/jR/wy78Kf+hG0v8A74b/ABo+oz7oP7eofyP8P8yf/h7Z8If+hc8bf+ANn/8AJVH/AA9s+EP/AELnjb/wBs//AJKqD/hl34U/9CNpf/fDf40f8Mu/Cn/oRtL/AO+G/wAaPqM+6D+3qH8j/D/Mn/4e2fCH/oXPG3/gDZ//ACVR/wAPbPhD/wBC542/8AbP/wCSqg/4Zd+FP/QjaX/3w3+NH/DLvwp/6EbS/wDvhv8AGj6jPug/t6h/I/w/zJ/+Htnwh/6Fzxt/4A2f/wAlUf8AD2z4Q/8AQueNv/AGz/8AkqoP+GXfhT/0I2l/98N/jR/wy78Kf+hG0v8A74b/ABo+oz7oP7eofyP8P8yf/h7Z8If+hc8bf+ANn/8AJVH/AA9s+EP/AELnjb/wBs//AJKqD/hl34U/9CNpf/fDf40f8Mu/Cn/oRtL/AO+G/wAaPqM+6D+3qH8j/D/Mn/4e2fCH/oXPG3/gDZ//ACVXuP7OH7WXgr9qC31t/CkOq2U+jmL7Va6vBHFJtk37GXZI6kfu275HGRyK+e9Y/Zi+Flvo99LH4I0tJEgkZWCNwQpIPWvOf+CPv/IwfE//AK9dP/8AQ565q1GVG13uepgsdDGqTgmrdz9MqKKK5z0gooooAKKKKACiiigAooooAKKKKACiiigAooooAKKKKACiiigAooooAKKKKACiiigAooooAKKKKACiiigAooooAKKKKACiiigAooooAKKKKACiiigAooooAKKKKAPnH9r79hvwP+1xoaSamDoXjCzj8uw8R2kYaRFzny5UyBLHkk4JBBJ2kZOfxH/aL/ZO+I37L/iE6f4z0SSPT5JGWz1u0BksbsA8FJMcNjnY2GHcV/SNWX4m8L6P4z0O70bX9Ls9Z0m7Qxz2V9As0MqnsysCDQB/L74d8Tav4P1i31bQtUvNF1S3O6G90+4eCaM+qupBH4Gvtz4L/wDBYH4v/D2GCx8X2mnfETTo+PNvB9kvtvp50Y2n6tGx4619TftA/wDBG/wN40kutU+GGtTeB9SclxpV4GutPZuyqc+ZEM55y4GeFFfA/wAV/wDgm78fvhPPKZvA9z4m09CQt/4ZP29HHPPlqPNUYH8SDqKAP0R8Cf8ABZr4NeII4k8R6L4l8KXLD52a2S8t1PPR423nt/yzHWvVrH/gp1+zTfxqw+JUcBO0bZ9JvkIyO+YO3Q+lfgVrGhal4evHs9V0660y7jOHgvIGikU+hVgCOoqjQB+5vxm/4KyfBTwZ4JvLvwTrjeN/EjBo7XToLG5gjD9N8kksagID6ZJ7V+N3xq+N3i74/eOrzxV4x1OTUNQnOI48kRW8eeI416Korg6KACiiigAoor7N/Yv/AOCbvi/9pKW08S+JI7jwr8PywYXkybZ79fSBTztP/PQ8emaAPl/4Y/CXxh8ZvFFv4e8FeH7zxDq0x4htEyEH953OFRf9piB71+q37Ln/AAR/8P8AhOC01z4wXkfiPWeJBoNi5+xQ99sj4BlPrgAe5619y/Bn4D+CPgH4Xi0HwToVvpFooHmyooM07D+KR+rH616BQBl+G/C+keDtHt9K0PTbXSdNt1CRWtpEI40A7ACtSiigAooooAKKKKACiiigAooooApa1o1l4i0m70zUrWO9sLqNopreZQyOpGCCDX4kf8FCv2A739n/AF648Y+ELaW88CXshdo0Us1g5P3G/wBn0NfuJWZ4l8NaZ4w0K90bWbKLUNNvI2int5l3K6kYIoA/lqor7L/b+/YP1P8AZr8SS+I/DtvLfeAb+UmKVQWNk5OfLf0Hoa+NKACiiigD9B/+CcH/AAUEm+D+pWfw58fXsk3g26k8uxvpWydOkJ4B/wCmZP5V+zVjfW+pWcN1azJcW0yB45Y2DKykZBB9K/le6civ0l/4Jv8A/BQyXwLdWPw0+Il+0ugSsItM1Sdsm1Y8CNyf4PT0oA/XfVtHsdesJbLUrOC/s5RtkguIw6MPQg18P/tMf8Eofh58V47nVfAoTwP4ibL+XEC1lM3un8H/AAHj2r7ot7iK7gjmhkWWGRQ6SIchgeQQakoA/mz+PP7K/wARv2c9aksvGOgTW1tuKxajADJazDsVkHH4HmvI6/qQ8WeD9E8daHdaN4g0u11jS7lCktreRCRGB9jX5Y/tgf8ABJG60tb3xT8Gy15armWbw3M2ZUHU+Sx+9j+6efrQB+XtFXda0S/8Oapc6bqlnNYX9u5jmt7hCjow7EGqVABUlvcS2k8c0EjQzRsGSRCQykdCD61HRQB+jv7Gv7eyaqLLwV8R7wJeYENjrUp4k7BJT6/7XfvX33HIk0ayRsHRhlWU5BHrX886sVYEHBHIIr7+/Yc/bcbTWs/APjy93WpIi07VJm5T0jcnt6GvVw+K+xM+QzPKt6+HXqv8j7H8Q/HiLQfiZ4k8HnRnnl0XwyfEbXf2gKsq7mXyQu04PyH5snr0pPhv+0h4U+IXwTf4liYabpFrbyS6hDM4Z7R4x88bHjJ6Y45yPWuN8XfC3xPrnx28b+JrHTRcaHqngL+x7O7W5iAluzJIwj2l9w4ZfmIC89a5D4b/ALHuqWOm+AxqN4NG0X+y7J/FvhZXV1vtRtUUQNuTKkZ+/hsN5a9e3ZzVObRaanjezw3InJ2en5ar+up1U37YLXHwp8C+MdH8E3Or3Xi/Vm0mx0cajHC4k/ebSZHXbz5ffAGetbei/tM3Pm+KtJ8U+BtQ8IeLNC0eTXBpN1eQ3Ed3bKDzHcRFlzkYIxxnvXlmrfs6+O9W+FPwp8PRWd1pF/o/jGbUtQuLC8tlmsbVnuCJkZmZWYCRCFAY8/d4NeoXP7NkHh/w/wCO9TttZ17xr401vRJtLivvEF5E8gjKNshj2pHGiliCcjr3qU6r/ryLnHCR0VtW+r76dbWt8z0PwT8SI/Gnwl0rxzHYNaxahpS6otk0oZkBj37C+OT2zivM/hR+0V49+LFnoGsWPwbu7XwtqzKRrUniKzKxQlsNIYeJDjB+Xbk4rI+Ctx8VdD+Geg/DzXPhJcaTa2OiHTZNcbxBYzJvSAqpESOW+ZgB14zya8x/Zt+B3iP4W3fg99V+Amox+INPcJc+Jf8AhN4mhTduVpfsi3DIQEY/KFPTjmnzzbja/np/wAVGjFVL2bvpqttf7y8u78j6L+Cf7RWh/GjVPGWlW0B0vVvC+pTWF1aTTBy8aOyLOpwPlYq3bjFclb/tkaHqvgP4oeLNI0aXUdL8EXYtdwuQn9odAXT5TsGScZznGeM15/of7JHizUNL1W8hv28D+I7vxNqourqKVJGvtEup9zpmMsA5X5kzgqSc4q54k/Zz8S2fw5+P3hvw74dSO21+WyTw7ax3MCLcRRW0MZ5LgJgow+faTjPep5qttivZYTndpaXXXbVX1819yPXPAfxa+IHia4WbXfhLc+FtDaze7XVJdfs7oHCbkXy4iX+b1xx3rk/Af7anhn4hfAzxR8QdN06Rb7w3byT3/h+S4UTIF5Uh9uCrDo2OuR2rnPgH8M9T8E6rPDH8DdQ8FS3elyWlzrl14yTUkZtmQogM743OByAMeuK4PxB+xz4wuf2ZfDyaDZronxRs9GfSNT09biHZqdo7sWt5H3GMsMhlbdx0yOxzVbXXn/WyGqWFc3GbS1VtfW9/el999ND1/wCJX7UXiz4dx6Len4T3Wp6HrUtnbafqUevWsYnuLlFKReWRvX5iV3MAOM5ANdP4v+PWsfD34UweJvEngK80/wAS3V6tjZ+FINQhuri4kZsLtli3LyoZuM4ArC+NXwt8T+Lvhn8LdJ0nTPteoaLrmjXl/D9oiTyYoNvnNlmAbbjopJPYGj4n/Cvx98UPjhpOpWWqL4P8O+FbMzaXqUlrBfm7vZsrKwhZ8psjwoZgPvHHrVt1Fe1zGMcPJRukt76vpt1e/kvQ62+/aK8Mab8EbD4mXAuW0q9giaCyt033Mk8h2rbqvGZN+VwcdD0qn8O/i94+8TeJrfT/ABP8HdX8IabeKz2uqHVbW9RQBn9+iENCT0AOTnj1rxdf2YfiFa+E/FPgqO8tr2DTtdtvFvhjXLhY4Laa7EnmTWskCOWjXfkghdvzcelel+A/jV8U/Gmq6jZz/Cyz0f8AsZJotR8zxFBNLJchMxxwxqBhXbGGkKqVOQeKFOV1zXXyCVGkoy9naXm3ay6dV89/kY2rfGAWf7UVt4PGveIk02a5jhuJ0NsdNS7MPmx2ODEXRiqFiwcE78emOy+JPx/v/D3jWTwV4H8EX3xD8XwWq3t5Z297FY29nCxIQy3EvyqzY4XByK8Uk/ZN+J+qfCm+mufGsNr4qvr/AP4SmTRRpsDbNUDeYkf2zfuwCFTIOMcdK7KHQfit8PfH118RtF8Dw+Jn8V6XZx674abVYLW70+8hQqWjlYtFIhzyA30qVKfVNXNZU6Da5Wm0rWvZN6bvTz69Nz0T4f8Axqg+KGk+K9JvtEvfCni3Q4mj1TQtQZHeHfGSjpIhKyRsM4YeleZf8Eff+Rg+J/8A166f/wChz11Hwv8Ah94tPib4gfEzxzY2ug634g0+OxttBtLkXIsrWFG2iSVfleRickrwBXL/APBH3/kYPif/ANeun/8Aoc9cOLbajzeZ72TxhGVVQ293z1s7/ifplRRRXnH0oUUUUAFFFFABRRRQAUUUUAFFFFABRRRQAUUUUAFFFFABRRRQAUUUUAFFFFABRRRQAUUUUAFFFFABRRRQAUUUUAFFFFABRRRQAUUUUAFFFFABRRRQAUUUUAFFFFABRRRQAUUVy3xP+JegfCDwLq/i7xNeLY6PpkJmmkPVvRFHdicAD1NAHmX7Y3x68Efs9/CG/wDEHi+wsNbuZg1vpmi3cKSm9uCOF2sD8g4LN0AHqQD/AD1eOfGF34+8Xar4gvYLS1udQuHuGt7G3SCCLcc7UjQBVA9hXp/7Wn7UXiD9qn4qXniXVWe10mEtDpWlh8paW+eB7uerHufbFeJ0AFFFFABU+n6fdatfW9lZW8t3d3DiKKCFC7yMTgKoHJJNWfD/AIf1LxZrllo+j2U2o6neyrBb2tuhZ5HY4AAFftx+wX/wTq0b9nnS7Hxh4zgg1f4iTxiQKwDw6XkfcT1cd2/L1oA8r/YS/wCCWeneHbaw8d/GTTk1LV2Cz2Hhif5oLbuHuB/y0fp8h+Udwe36Ywwx28KRRRrFFGoVEQAKoHQADoKfRQAUUUUAFFFFABRRRQAUUUUAFFFFABRRRQAUUUUAYvjLwbo/xA8M6h4f1+wh1LSb6JoZ7eZcqykfofevwf8A27v2H9Z/ZZ8aSX+mxzaj4C1KUtY3wUk25PPkyHsR2PcV+/Vcz8SPhzoHxY8G6l4Y8TafFqWkX8RjlhkXOMjhlPYjqCKAP5faK+l/21v2Mdf/AGVfHEgWOXUPB99IzadqQXIx/wA83PZh+tfNFABSqxVgQcEcgikooA/Yz/gkh+1bqPxI8P6j8MfEl293qWiW4uNOuJSSz2+cFCe5XIx7V+jlfhP/AMElVvW/a200Wm7Z9huDPjpsC85r92KACiiigD5W/bG/YE8GftR6VLqNvFD4f8cRRkQavAgAm9EmA+8PfqK/EP43/AXxn+z34yuPDnjLSZNPuo2PlTYzDcJnh436MDX9MteVftEfs3+D/wBpbwLc+HPFVirttJtL+NQJrWTHDI38x0NAH81lFe4ftT/smeMP2WvG0ula5atc6PMxNhq0SnyrhPr2b1FeH0AFKrFGDKSrA5BHUUlFAH6J/sGftmPeS2fw78bX2ZCBHpmoTtyfSJif0NfoPX89FvcS2s0c0MjwzRsGSSNirKR0II6Gvrv9mXWPjR+0VqUnhvw18SNUXW7WLelpfeJLi3aWMd0y2Dj0FejRxnJHlkrnzOMyZV6ntKT5b7n6uUV8a/8ADGH7XX/Q433/AIV03/xVH/DGH7XX/Q433/hXTf8AxVb/AF6P8pw/2DV/nR9lUV8a/wDDGH7XX/Q433/hXTf/ABVH/DGH7XX/AEON9/4V03/xVH16P8of2DV/nR9lUV8a/wDDGH7XX/Q433/hXTf/ABVH/DGH7XX/AEON9/4V03/xVH16P8of2DV/nR9lUV8a/wDDGH7XX/Q433/hXTf/ABVH/DGH7XX/AEON9/4V03/xVH16P8of2DV/nR9lUV8a/wDDGH7XX/Q433/hXTf/ABVH/DGH7XX/AEON9/4V03/xVH16P8of2DV/nR9lVl6F4V0Xwv8Aa/7H0ix0r7XL59x9jt0i86TpvfaBuPua+Sf+GMP2uv8Aocb7/wAK6b/4qj/hjD9rr/ocb7/wrpv/AIqj69H+UP7Bq7e0X4n2VRXxr/wxh+11/wBDjff+FdN/8VR/wxh+11/0ON9/4V03/wAVR9ej/KH9g1f50fXmvf8AID1H/r2k/wDQTXzT/wAEff8AkYPif/166f8A+hz1zEn7Fv7W80bI/i+9dGG1lbxbMQQeoI3V9I/8E9/2TfGf7NzeM7/xk+nx3GsLaw21tY3BmKrEZSzOcADPmLgAnoc44rjxFdVrWWx7eW4CWBU1KV72PsiiiiuM9kKKKKACiiigAooooAKKKKACiiigAooooAKKKKACiiigAooooAKKKKACiiigAooooAKKKKACiiigAooooAKKKKACiiigAooooAKKKKACiiigAooooAKKKKACiiigAooooAK/E3/gqZ+2QfjP48Pw58L32/wb4dnIupYG+S+vBwzZH3lTkDtnJ9K+2P8AgqB+1u/wB+FMfhTw9eeV4z8UxvCjRt89naYxJL7E52r/AMCPavwyZjIxZiWZjkk9TQAlFFFABVrStLvNc1O007T7WW9v7uZILe2gQvJLIxCqiqOSSSAAPWqoyeBya/YD/glv+wj/AMILptl8YPHunhfEV5Hv0LTbhPmsYWH/AB8OD0kcH5R/Cp9WwAD0n/gnr/wT7sf2b9Fh8Z+M7aG/+JN9ECqNh49JjI5jj7GQ/wAT/gOM5+36KKACiiigAooooAKKKKACiiigAooooAKKKKACiiigAooooAKKKKAON+LXwn8OfGrwPqHhXxPYx32m3iFfmA3Rtjh1PYivwP8A2wv2O/E/7K/jq4tbqCW+8L3LltO1ZEJR0zwjHsw9K/oirn/HHgHw78SvD9xofijR7TW9KuBiS2vIw6/Ueh9xQB/LvT4LeS6mSKGNpZXO1UQZJJ7AV+3fiz/gj38FPEWpSXVhda9oMTnItrO5RkX2G9ScV6T8D/8AgnL8GvgbqUOq2GjS67rEJ3R3msOJthHQquAAaAPHP+CU37Iup/Bzwne/EHxVZNY6/r0Kx2lpMMSQ22c5Ydixxx6V+glIqhVAAwBwAKWgAooooAKKKKAOD+NXwX8M/HnwFf8AhTxRZJd2Vyh2SEDfA+OHQ9iK/Af9rP8AZR8Tfss/ECfSNVhe50W4cvp2qKp8uePPAJ7MO4r+jSvM/wBoP4B+Gf2jPhzqPhTxJao6Txn7NdhR5ltLj5XU9sGgD+aOivR/2gPgX4i/Z3+JmqeDvEduyT2rloLjHyXMJPyyKe4IrzigArpPhz8QdZ+FvjXSfFGgXT2eqabOs0UiHGcHlT6gjiubooA/pA/ZO/aQ0f8Aaa+EuneJtPkRNRRRDqNmD80EwHOR6HqK9or+en9hX9qrUP2YvjFYXcszv4V1SRbXVbXPy+WTgSAeq9a/oM0vVLTW9NtdQsZ0urK6iWaGaM5V0YZBB9waALVFFFABRRRQAUUUUAFFFFABRRRQAUUUUAFFFFABRRRQAUUUUAFFFFABRRRQAUUUUAFFFFABRRRQAUUUUAFFFFABRRRQAUUUUAFFFFABRRRQAUUUUAFFFFABRRRQAUUUUAFFeffGX49eCPgDodpq3jfWP7Ktbyb7PbKlvJPJM4GSAsak4A5JOB05yRnx3/h5Z8A/+hovv/BRc/8AxFAH1HRXy5/w8s+Af/Q0X3/gouf/AIij/h5Z8A/+hovv/BRc/wDxFAH1HRXy5/w8s+Af/Q0X3/gouf8A4ij/AIeWfAP/AKGi+/8ABRc//EUAfUdFfLn/AA8s+Af/AENF9/4KLn/4ij/h5Z8A/wDoaL7/AMFFz/8AEUAfUdFfLn/Dyz4B/wDQ0X3/AIKLn/4ij/h5Z8A/+hovv/BRc/8AxFAH1HRXy5/w8s+Af/Q0X3/gouf/AIij/h5Z8A/+hovv/BRc/wDxFAH1HRXy5/w8s+Af/Q0X3/gouf8A4ij/AIeWfAP/AKGi+/8ABRc//EUAfUdYvjLxfpXgHwpq3iPW7pbLSdLtnurmdv4UUZP4+g9a+dv+HlnwD/6Gi+/8FFz/APEV8V/8FMv2/PDXxe+HulfD/wCGuqXVzYXs32rWrmS2kty0af6uABwCQW+Y8fwqPUUAfEf7T3x61X9pD4za/wCNdSLRw3UxjsbVmyLa1U4jQe+OT7k15VRRQAUUV6F8APgvrP7QXxa8PeBdERvtWpz7ZZwuVt4V+aSVvQKoJ/Id6APqj/gl5+xt/wAL1+Ig8eeKbIyeB/DcwZIZV+S/vBykfPVE4Zh3+UdzX7eKqxqqqoVVGAoGAB6VyHwh+Feg/BP4c6H4L8NWq2uk6VbiGMAYaRuryMe7MxLE+prsaACiiigAooooAKKKKACiiigAooooAKKKKACiiigAooooAKKKKACiiigAooooAKKKKACiiigAooooAKKKKACiiigD5j/bt/ZE0v8Aai+F84ggjh8YaTG02l3gGGY4yYmP91sfnX4CeIvD9/4U1y+0jVLaSz1CzlaGaGQYZWU4Ir+pevyz/wCCs37G6S2Unxj8KWYWSHC65bQr1XoJ8D070AflHRRRQAV+xn/BJb9rH/hOPCL/AAr8Q3m7WNIj36Y8rfNNbjqg9Sv8q/HOuy+D/wATtV+DvxI0Hxdo87QXmmXSTfKfvqD8yn1BGRQB/TtRXK/C74iaZ8V/h/oXizR5VlsNVtUuE2nOwkfMp9wcj8K6qgAooooAKKKKACiiigAooooAKKKKACiiigAooooAKKKKACiiigAooooAKKKKACiiigAooooAKKKKACiiigAooooAKKKKACiiigAooooAKKKKACiiigAooooAKKKKAPzz/wCCwH/Iq/DT/r9vv/RcNc54A/Y3+FuveBPDmp3mi3Ml5e6bbXMzrfzKGd4lZjgNgck10f8AwWA/5FX4af8AX7ff+i4a9K+E/wDyS3wd/wBgaz/9EJXFipSilyux9Bk9GnVnNVIp+p5h/wAMRfCT/oBXX/gxn/8AiqD+xH8I1BJ0K6wP+ojP/wDFV7zTJv8AVP8A7przva1P5mfT/U8N/wA+19yPjvTfh9+ydq+uJo1t4g09tTeXyFtpNamjYyZ27PmYDdnjHXNenf8ADEXwk/6AV1/4MZ//AIqvlu1uPFWofsypoN5oui2PgDU/E11aXPiySV57nTQ2oSEzNAEAQB/lD7zjIJA7dN8aPE3iPS/il4p0vW/Ef9hQwQWyeE7268QanpyGIRL+9gitLeWO5kMmdwfJPA245rqaneykzx4yoKPNOlHp0tvf17b7M9+/4Yi+En/QCuv/AAYz/wDxVH/DEXwk/wCgFdf+DGf/AOKrldS+K83we+Mmi3HxH1ieCz1TwhBbx3FrDcS2dzqKyEyCNFTIdgRjKg4x9K868HXmqfEjTfgZp934i8Q2FprWoa4L1rTUJra5ljVnKxu4O4YAA9R0GKhe035mdLWFvyqkr9tO6X6np3jr9ln4L/D/AEaLUr7wvrd7DJcw2oj02a5uJA0jBQxVW4UE8ntVTxJ+zn8BfCerppuo6LrCXDIjhoft80YLkhELoCodiDhScnHSvO9c17XfCnw6+I3h628R6zcWnh/4h6bp+n3F5fyS3MdtJJAzRGYncy/MwwT0JFX/AIueKre38ffE+Hx14s8VeHfEdsU/4Qex0e6uoY54vKBjeGOL5JpGlyGD5+gFUuf+Z/1Yxl7BJtU4r1S8/wDLQ9hH7EfwkIz/AGFdf+DGf/4qj/hiL4Sf9AK6/wDBjP8A/FV4J8VfGXjq18R+HYviNfjQNPm8L2skEt1ruoaNbf2iVP2g+ZZQyb51OMJJgAdAcmj4jeJtZ0DR/BFz4x8e2Ou3SeHhI2iHXdV0V75i7GO4hmhhUyzMgVSsiKQecDNK1TT3inLCq/7pad0vx0/zPe/+GIvhJ/0Arr/wYz//ABVH/DEXwk/6AV1/4MZ//iq9a8Aak2seB9AvnsrzTXuLGGQ2moSGS4hygO2RjyzDuTyTW/WHtKn8zPSWEw0kn7NfcfOviT9kH4L+FfD+pazqOj3MFhp9vJdTyNqU4Coilifvegr8kPF+q2ut+KNUvrC2NnYTXDtbW5dn8qLPyLkkk4GOtfpn/wAFMPisfCXwjsfCNrP5d74kn/eqpw32aIhmz7Fig9/zr8ta9HDczjzSZ8rmvsoVVSpRStvZBRRRXYeGFftP/wAEk/2WT8L/AIXS/E3XrPyfEniqMCyjkX57ewByp9jIRux/dCZ9B+Y37GfwDuP2jv2hPC/hPY39kCcXmqzAZ8u0jIaQfVuEHuwPQGv6M7Gxt9LsbeztIVt7W3jWKKJBhURRgKPYAUAT0UUUAFFFFABRRRQAUUUUAFFFFABRRRQAUUUUAFFFFABRRRQAUUUUAFFFFABRRRQAUUUUAFFFFABRRRQAUUUUAFFFFABWZ4m8OWHjDw7qOiarbpdadqED288MgyGRhgitOigD+cT9r79nXUP2afjNq/hmeNzpTyNPptwRxJAxyvPqOh+leJV+6/8AwVG/ZvT4zfAW88R6baiTxJ4XU3sRRcvLCP8AWJ78cge1fhRQAUUUUAfq1/wR1/aSNxHqXwk1i6y6q17pPmN2HMkY/Dmv1Or+Zj9n/wCKN58GfjJ4U8YWTlZNMvo5XUHh484dT7EE1/Sh4S8TWXjLwzpeuadKs1lqFulxE6ngqwzQBr0UUUAFFFFABRRRQAUUUUAFFFFABRRRQAUUUUAFFFFABRRRQAUUUUAFFFFABRRRQAUUUUAFFFFABRRRQAUUUUAFFFFABRRRQAUUUUAFFFFABRRRQAUUUUAFFFFAH55/8FgP+RV+Gn/X7ff+i4a9K+E//JLfB3/YGs//AEQlea/8FgP+RV+Gn/X7ff8AouGvSvhP/wAkt8Hf9gaz/wDRCV5+M2R9Lknxz9EdVRRXO/EaaS38A+I5IdUbRJU0+dk1JY2kNqfLbEoVRuJXrgc8cV5p9Y3ZXOipMA4yK+BfBPj7xEngvx5p3gaa58T+KINA87/hJdD8SajqsDOJVD5huk/c3JQu4CBuhwK3Pgd4i1XVtQ8RXGg+LLO50WHwxdPqumx+IdV1WdbnYfKmzd26CCUMGDKHBOfu8Zrd0Wr6nnRx0ZNJLf8Ar/h/1Pt6lr4J8O+FdT/4Q/8AZ71ZPHXjJL3xrOmn60/9uzkTQNAz7UBbEZGwAMuG5JznmtnUvFk/w30b4ueFbu+8Qa54f0fxPp1pZzXXiG5tXsYZ4Ukcz3qB5lgDE7sZ4PbrR7Lon/Ww1jNLyjZevlf8j7dpMDjivz9sfG/iGP4M/HGwtvEdybPTbjTZdKuLHWbq/W2WZkLfZ7udEldDjIyMcnBNeqW9nefB346WOm6frfijX9M1jwXfapfaffarLdyTXMLJteHeT5bncw+XA5GBQ6Vuo44xSs+XT/gtfofVkzrHE7sCyqNxCrk8c8DuawPAfjay+Inhm21ywtNQsraZ5EWHVLRradSjlCTG3IGQcHuK+MvgT8Qb68+NngltI1WZNH1zTr1dQ07/AISm+1phKkQdRci4iRYZ1PUIe54A6483i67/AOFU/DvUNa8dxw2+7VDPousa3qOmDUWFyQji8tgzb0AwsbcHOe1P2PT+upn9eTXMlpr+n+fY/QeiuF+But/8JH8I/C2o/wBnahpIuLJWFnql1Jc3CDkDfLJ875AyGYAkEVJ8a/HEXw3+EvizxLK+z+z9Ollj5wWk24jUe5YqPxrDld+U9D2i5PaPa1z8p/26PioPih+0FrZt5vO0zRT/AGXbEHKnyyfMI9i5b64zXz7Ut1dSXt1NcTNvmmcyOx7sTkmoq9+MeWKij82q1HWqSqPqFFFdR8LvAN98UviL4c8JaarNeaxfRWabRkjewBb8Bk/hVGR+vn/BH39nuPwD8Gr/AOI2owf8TrxZJstWYcxWUZIUD/ffcx9lX0NfoJWF4F8IWHw/8F6F4a0uFYNO0myhsoI17JGgUfU8ZJ7k1u0AFFFFABRRRQAUUUUAFFFFABRRRQAUUUUAFFFFABRRRQAUUUUAFFFFABRRRQAUUUUAFFFFABRRRQAUUUUAFFFFABRRRQAUUUUAQX1nDqVnPaXMYlt542jkRhwykYI/Kv53/wBuX4Bt+z3+0Fr2hwRFNHu3N7p5xgeU5J2j/dPFf0T1+d//AAWM+Bh8YfCbRvH+n22/UPDs5iumUcm2k4/RsGgD8Z6KKKACv2+/4JH/ABxf4lfAG58LX8/map4WuRAu5uWt3GUx9CCPxFfiDX2t/wAEn/i9/wAK7/aWtNDuJvLsfEsRsSrHAMvVD9c0AfulRRRQAUUUUAFFFFABRRRQAUUUUAFFFFABRRRQAUUUUAFFFFABRRRQAUUUUAFFFFABRRRQAUUUUAFFFFABRRRQAUUUUAFFFFABRRRQAUUUUAFFFFABRRRQAUUUUAfHH/BSb9n/AMb/AB08G+Dj4I0j+3LrSL2drm0SeOKTZIiAOPMZQQCmCAc/MDjANfKumfC39s7R9NtNPs9H1eCztYkghiWTTyERVCqvLZ4AFfrjRUuKlujSFSdP4JNeh+S//Cvv21/+gbrH/fen/wCNH/Cvv21/+gbrH/fen/41+tFFT7OH8qNfrVf/AJ+P72fkv/wr39tYdNM1gf8AA9P/AMaP+Fe/trDppmsf996f/jX60UUezh/Kg+tV/wDn4/vZ+S//AAr79tf/AKBusf8Afen/AONH/Cvf21/+gZrH/fen/wCNfrRRR7OH8qD61X/5+P72fkv/AMK+/bX/AOgZrH/fen/40f8ACvv21/8AoG6x/wB96f8A41+tFFHs4fyoPrVf/n4/vZ+S/wDwr39tb/oGax/33p/+NB+Hv7ax66ZrB/4Hp/8AjX60UUezh/Kg+tV/+fj+9n5L/wDCvv21/wDoG6x/33p/+NeB/te6n+0F4H8F2Wh/FKW+sNN1uU+XbXDWp87y8Mf9Vk4BK9eK/eSvxY/4LOeOv7d/aM0Hw3FIWg0LRIzIuek0zs5H/fAjP/AjT9nBbITxFaSs5u3qz8/qKKKs5wr78/4I3/CiPxh+0Jq3jC6txNb+FdOLQuy5CXE+Y1P+9sEuPx9K+A6/b7/gj58MP+EM/Zin8Syw7LrxVqUl0JCOWhhzCnPoGWT8S3rQB91UUUUAFFFFABRRRQAUUUUAFFFFABRRRQAUUUUAFFFFABRRRQAUUUUAFFFFABRRRQAUUUUAFFFFABRRRQAUUUUAFFFFABRRRQAUUUUAFcn8V/Att8Svhz4h8M3cayxalZyQbWGRuKnB/PFdZRQB/Lf4y8OXHg/xbrWhXSlLjTbya0cMOco5X+lY9fX3/BUj4Tp8M/2otWvLeLyrHxBGNQiAGBuOA/6/zr5BoAK6L4c+K7nwL4+8P+ILNzHc6bfQ3KMOxVga52igD+onwF4qg8c+C9E8QWxBg1K0juVx/tKD/Ot+vln/AIJo/ED/AITz9kXweJJfNu9JWTT5jnn5WJXP4EflX1NQAUUUUAFFFFABRRRQAUUUUAFFFFABRRRQAUUUUAFFFFABRRRQAUUUUAFFFFABRRRQAUUUUAFFFFABRRRQAUUUUAFFFFABRRRQAUUUUAFFFFABRRRQAUUUUAFFFFABRRRQAUUUUAFFFFABRRRQAUUUUAFfzqft5+Of+FhftcfEvU438y1h1R7G3OcgxwARAj2JUt/wKv6IdUvItP0u8up5PKhgheV5B/CqqST+AFfy8eMNXm8QeLdb1S4G2e9vZrh1znDPIWI/WgDIooooAVRuYDOMnvX9L/7N/gn/AIVz8A/h/wCGzEYX07RbWJ42GCr+WCwPvknPvmv53fgD4QHj/wCOHgLw4UEi6prdnalGGQwaZQQfbHX2r+miOMRRoi9FAAz7UAOooooAKKKKACiiigAooooAKKKKACiiigAoor85fA/7Xn7VXxw+J3xM8O/DXw38Obuw8H6zcacz6vHcwymNZ5Y4yT9owzER8kADPagD9GqK+Hfht+3T8RPAvxi0X4Y/tIeALDwNquvME0jX9HmLafcOW2qhy8g5Yhch8gkZUZzX1V/wu3wR/wALY/4Vn/b0X/Cc/Zftv9j+VL5nkbd2/dt2Yx/tUAdxRXD6t8bPBOh/FDS/h1fa9Fb+NNUgN1Z6SYZS80QDEsGC7APkbqw6fSuU1/8AbC+DXhXWvE+kaz8QNL0vUvDTBdVt7zzI2gYnAUZX94xJ4VNxPpQB7HRXi3jv9s/4JfDO4tbbxJ8R9H067uYY7hLXc8s6xuodGeONWaPKkEbwOteifD34leFviv4bg8QeD9fsPEejTEqt5p8wkQMOqtjlWHdTgj0oA6WivEfFn7bHwL8D+LH8Na38TtBs9Zjk8qWATNIsL5wVkkRSkZB6hmGO+Kz/ANqb4u6Z4b+F+k3en/F7QPhrb6vcwuviKd47maSy+9IbKPa4mkI24OCAGJz0oA9+or5N/ZH+MGrfFjxpqSy/Hjwp8StE0myNva6doulmx1C6JcH7XepIAQygbB5IEZ3EkZxXsvxb/aX+F3wJmtoPHnjbS/Dt1crvhtLiQvO65xu8pAz7c/xYx70Aem0VxPgf41+A/iV4NufFfhfxXpet+HrVGkub60uAy24VdzeYOqELzhgDjtSfCP42eCfjx4Yk8Q+A/EEHiLSI7h7V7iGOSMpKuMqySKrDqCMjBBBGRQB29FFFABRRRQAUUUUAFFFFABRRRQAUUUUAFFFFAH5f/wDBbD4fG88P+BPGUcf/AB5SS2Ergdnwwz+K1+S9fvt/wVA8Ip4r/ZB8VN5Xmz6e8N5Fxyu1xk/lX4E0AFFFFAH60/8ABE3x1LdeHfHnhOR8x20sV9EpPTd8rY/Sv0/r8Uv+CNviz+yv2jtS0MvgarpUpC+pjG/+lftbQAUUUUAFFFFABRRRQAUUUUAFFFFABRRRQAUUUUAFFFFABRRRQAUUUUAFFFFABRRRQAUUUUAFFFFABRRRQAUUUUAFFFFABRRRQAUUUUAFFFFABRRRQAUUUUAFFFFABRRRQAUUUUAFFFFABRRRQAUUUUAcD8fteXwv8DfiDq7H/jy0G+nVf77LA5Vf+BHA/Gv5lWYsxJOSeSTX9GH7dl6dP/ZB+K0ysVb+xJUUjruYhR+pFfzn0AFFFFAH0t/wTf0L/hIP20PhtCF3tBdy3QX/AK5wSOT+ABP4V/QlX4Yf8Eg9Njvv2v7Sdxl7XRryRPVSVVc/k2P+BV+59ABRRRQAUUUUAFFFFABRRRQAUUUUAFFFFABX5n/8E7/iF4W8C/Hr9pv/AISTxLo/h77R4om8n+1b+K28zF1c5272GcZHT1r9MK+ZfEX/AATX/Zx8WeINT1vVfh19q1TUrqW9u5/7c1JPMmkcu7bVuAoyzE4AAGeBQB8t/t6fFTwx+1V8aPgv8MfhTqVv4z1+x1sX95qWiSLcW9pFlM/vlyp2hWdsEgbRnkgV0vjjxhovwt/4K6aZqvizU7fQdJvvCSWsGo6jIsMDSNGygGRiFGWQjk9cDvX2h8H/ANm/4Z/AO2mi8A+DdN8ONMuyW5hRpLmVR0V5pC0jD2LEVW+N37MPww/aMt7KP4heErXxA9lkW1yZZbe4iBOSqyxMr7SR93OPagD4u8TfE/wv8TP+Cs/w2fwrrdl4gtdN0OW0uLzTp1ngE3l3DFA6khiAwzjpnHXNc98Ffgj4K+M3/BTT4+/8JtoFp4ktNHc3NtY6hGJbfzWaNdzxn5XwM4DAjnpX214H/Yx+DHw18U+HfEnhjwLaaLrfh+B7fT7u1urgFEfduLr5m2VjuPzyBm9+BXT+Ef2f/AXgT4meJviDoeg/YfF/iQY1XUftlxJ9o5B/1byGNOQPuKKAPjPxJ42j+MX7T3xE8C/Dr4MfCW61HwnaxWep618RYyWuokURqkKRxMUjQDGOmACccCvFf2J9V8VaL4R/bG0Lwh/Z0Op2Nk9zp1v4bmeWzjuT9qQ/ZWbkoAgCHGeFr9Bvir+xD8EfjZ4yXxX4x8BWmqa/8vmXkdzcWxn24x5qwyIsnAAy4JwMdOK6X4Tfs0fDP4F674h1jwJ4Vg8OX2v+X/aBtriZopQhYoFidykYBduEVRzQB8JfsQ+Ff2V9Y/Y9N/8AEC28F3OuoLo+Ir3xAIDqVu5dsbHf98nybdnl8k9Mmu0+OnxY+FnhnTfgN8Nfhb8PPBPxAs9eLyeF7zxRMZdG05d2wu24M7OWLZB5Uju3FQ/HD9k34f8Aiv8AbA8LvpXwUvtY06aby/ESrpN5YaO4k/eG+F7HKsLOmNphCneWbOTg19b/ABO/ZX+FHxh8H6T4W8VeCdNvtD0hdunW1uHtDZrjG2J4WRkU4GVBwcDINAH5z6PpviD4d/8ABT74U2+paR8PvC2s30Dw3+n/AA3klFo8bxT/AOvR1TbIcA8DkBSc10/7P+k/DrxV+3R8fYvj7a6Df+KFviui2fi9YpLU2od8GJJxsLCIQkccLkjua+z/AAT+wv8AAz4c+JvDPiHw54BttK1rw4WbTr2G9ut6MwIZpMy4mOGIzIGIHToK2PjX+yP8I/2iLy2vfH3guz1rULddkd/HNNa3O0dFaWF0ZlHZWJAzxQB8Sfs0xeCbD9vz40WHw7Ngfgn/AMI5Idejsip0lJNqbguDt2584DbxjeBwK+yf2QYvgjD8L7gfAZrNvCB1CYzm1a4LfaeN+/7R+86bcZ42428V1/w4/Z9+HXwj8E3nhLwj4S0/RvD98jJd2sas5ugylT5sjkvJ8pIyzHirHwd+B/gj4A+F5PDvgLQY9A0iS5e7kgjmklLytjLF5GZjwAAM4AAAoA7uiiigAooooAKKKKACiiigAooooAKKKKACiiigDzP9pbwuvjL4DeONKZd3naVOQPcISP5V/NGylWIIwRwRX9R/jO1N94R1q3H/AC1s5k/NDX8wviy2Fl4q1m3UYWG9mjA+jsKAMqiiigD6d/4Js+JH8M/tieBZY22m6lksj7iRCuK/oLr+b/8AYx1IaP8AtTfDS9JwINagf/x6v6QKACiiigAooooAKKKKACiiigAooooAKKKKACiiigAooooAKKKKACiiigAooooAKKKKACiiigAooooAKKKKACiiigAooooAKKKKACiiigAooooAKKKKAPlL9tb9ta9/ZZ1Tw1pWleGrfXb3VoJbmSS8uGjjhRGVVACjLEkt3GNo654+Zv8Ah714w/6EDRP/AALmpf8Agrx/yUr4f/8AYKn/APR1e9UxHgn/AA968Yf9CBon/gXNR/w968Yf9CBon/gXNXvdFFgueCf8PevGH/QgaJ/4FzUf8PevGH/QgaJ/4FzV73RRYLngn/D3rxh/0IGif+Bc1H/D3rxh/wBCBon/AIFzV73RRYLngn/D3rxh/wBCBon/AIFzUf8AD3rxh/0IGif+Bc1e90UWC54J/wAPevGH/QgaJ/4FzUf8PevGH/QgaJ/4FzV73RRYLngn/D3rxh/0IGif+Bc1H/D3rxh/0IGif+Bc1e90UWC58d/tGf8ABTTxN8XPgt4p8G3ngzSdPtdZtvsslzBcys8YLA5APBOQK/Oav1j/AG4IWm/Z18REfdTy2P8A30K/JygYUUUUgP0C/wCCMOi/aP2jte1US4NtoM1uY9ucrJJGd2c8YMY/Ov2mr8a/+CK95Ha/G7xdCQPNudH2D6LIG/pX7KUAFFFFABRRRQAUUUUAFFFFABRRRQAUUUUAFFFFABRRVDXtatPDeh6hq1/IYrGwt5LqeQKSVjRSzHA68A0AecftGftKeD/2YfA8fiXxa91OtxcLaWWmabGst5ezN/BEjMoOBySSAPxFd94R1+XxV4X0vWJtKvtDkvrdLg6dqSotzb7hkJIEZlDAHkBjivyK0P8AbA+GHxy/aY1n4ufF3xRHpGk+E43j8B+EbnTry5R5QCUuJvJiZASwViCw+YjoEBP2V+wT+3tY/tUaM2ieKLvSrD4nIbi6fRNHsLuKAWUbIqy+ZIXTOXGR5mf9mgD7DorwH9t7XPBui/Ai/Xxv4617wBpV1dQwrqHhiV01Cd92TbxBAd29QwIIKjqelfmt4j8RWf7M/wAUPhn4o+Ej/Gjw3BqWrQ2eqWvxGsZLey1GFmXIQkKshKs2VOcZDDGKAP2nr4/+IH/BTLwN4C+J3ijwMngLx/4m1Xw7c/Zb2bQNMguoA2M5B88MB1HzKOhr6/Vtyhh0IzX5z2n7Pf7V3wV+NHxa+IPw3h8B39t4t1CS9a01a4kknkiR3aJBwgVsMeC+OetAH2j8A/jhYftAeBP+Ep07w/r3hq3+1SWpsfEdottdApjLFFdhtOeDmvSK+bf2F/2rr79qz4b6tf67okOg+KtA1A6ZqtraFjbtJt3B49xJAPIKknBU8mvpKgAooooAKKKKACiiigAooooAKKKKACiiigAooooAKKKKAKuqQm4027iHJkhdfzUiv5j/AIvWY034qeLrUceTqtzHx6iRgf1r+nO+Zo7K4ZPvrGxH1wa/mP8AjM4k+LnjNwcltYumb/eMrE/rmgDjqKKKAPQ/2eLo2fxy8CzAkbdXtycf74r+mKKTzYkcDAYA/nX8zP7P9sbz43eB4QdpfV7YZ/7aCv6Z0IZFIGBjgUAOooooAKKKKACiiigAooooAKKKKACiiigAooooAKKKKACiiigAooooAKKKKACiiigAooooAKKKKACiiigAooooAKKKKACiiigAooooAKKKKACiiigD8uv+CvH/ACUr4f8A/YKn/wDR1e8SP5cbOeQoJrwf/grx/wAlK+H/AP2Cp/8A0dXu9wpeCRQMkqQPypoTPDNL/awsrvS7XXL7wT4k03wrPdfZP7fdbeW3jbzDHudUlMgXcMZ216hqXxO8IaP4gttCv/E+kWWtXO3ydPuL2NJ33fdwhOee3r2r5j0j9nL4gWXw98M2mo3mqarp0OtG41XwOLu1iie389mVo5lxnBKyFWkOeRwat+KPgN4zm8VeMtLbTtX1Tw14o1IXhvNJ1HS7dIo22jE32i2ecPHj5TGxHAxtpiPe9J+N3hDWPiRq3gaHVrddf01UZ4ZJ4gJSwJKR/PuZkCncuMrxmtS1+Kfg2+hvZrfxXos8NjD9oupI7+JlgjLFQ7kNhRkEZPoa8w0j4a614N/aC1jW7bwxHrOg65p1pbrq6zwJJYSwpIrvIjEMxfcPmQHPeuUs/wBnbWLP4B6Lplt4c04eKLLWF1e+0u4kjVdTCXDv5UkyllOVKkbiQCADigD3/RfiT4T8RaFda1pfiXSb/SLUE3F9b3sbQw4GTvYHC8euKpaf8YvAmraTcapZ+MdDuNNt5Ugmuo9QiMccjnCKzbsAsegPXtXh9x8IvEXjK6+IPiLVfAjaJb61pdrpsPhax1W2juLh4pS5uGmTMSuM/LnOQuD1ri/iZ4d8f2fwh1eDxNYySabPrejQ6XY+IJLOS8kIuFVlnltFCGM5UDOWAz9KAPrPwz8RPC3jOG8l0HxFpesx2ZxctY3kcwh/3tpOOh5NN8L/ABI8KeNp7uHw94l0nW5rT/Xx6feRzNF7sFJwPfpXz9rPwX8Y/FLWfF+ot4ctfhol54ZfQbe3jvIpjeSlwwkcwcCNQu0Z+bDHjtTPBfwR8Xa/JcHX7LXPD2oWegXOkWd7c6jpb2+ZUCbUSzto5DGMBgXYEY6E5oA92h+MngW6bVltvF+iXculQvPexwahCzQIg+Zm+bgDuTwO9cpbftBaX4x8A6V4m8F3Ok36XWo21nPbatqUVq9sJH27XALYlI5WM8tkY9K534W+DdfisdJ8N658KNE0K30vSpNPbXvtlvP5jFQuYEVS+18ZbftPPfvx/h/4P+NLP4L+G/Bb+DUstR0DxDps8t9FeWxTUIIrku84w4YbUx8r/Mc4ANAH0mvjjw8+jXWrrrmnHS7WVoLi9F0nkwyK21kZ84Vg3BB5B4rPtvix4KvPE3/COweLNFm17cU/s2O/iM+4dV2bs7vbrXj2ufBPxPdfGSaxtbaE/C/V9Sg8R6k5mXct5Ep/cCPdu2yOsTkgEfKc9a5Pxb8Lfip4o8SWsl5pNxK1l4tg1KOazl0uCw+xLcBt6YQXRk8vO/c4zk/e6UAer/tc2P279nvxgCMiK1Mx+inNfkHX7OftAaW+tfBfxhYou8zadKu3/gOa/GOkxoKKKKQz7u/4I66iLP8Aaeu4SebjSZkA/EGv26r8CP8Agl74mXw3+2F4TMj7YbyOe1b3LIQP1r996ACiiigAooooAKKKKACiiigAooooAKKKKACiiigAqG8s7fULSa1uoI7m1mQxywzIHSRSMFWU8EEcYNTUUAeYeI/2a/hprnh7VNNg8BeFNPnvLWW3ju49Bti0DOhUOMIOVJz1HTqK4r9jz9j3Rf2TvAY0UXlh4o137RNKfEf9jpZ3RikKnyc75G2jaP48H0r6EooA8V/aw/Zf0f8Aas+G8HhnUtWutAvbG9TUdN1W0QSNbXChlDFCQHXDEEZB9CK8C8e/8E6fH3xgh8Jy/EH9ofU/FF/4c1CO6tBJ4cghtBEuCU8mOZSZGKr+9ZmOBjHOa+56KAInhLW7RCRoyU2iRMbl4xkZBGfrXwvrX/BOv4pw3Wp2vhj9qzxto3hy/lklbTrqGSd08xiZAHS5jUZyfuooyelfdtFAHj/7L/7Mfhj9lX4cDwr4cluL+Wec3eoapeY868uCAC7AcAAAAL2A6k5J9goooAKKKKACiiigAooooAKKKKACiiigAooooAKKKKACiiigClrU32fR76XO3ZA7ZPspr+Yn4mTrdfEbxRMp3CTVLl8+pMrE/rX9K/xY1j+wPhj4q1H/AJ99MuJP/IZr+YvUrg3WoXUzOZGklZy5/iySc0AV6KKKAPTf2Y7U3v7QXw+gHWTWbcZ9PnFf0tV/Or+wb4fPib9rL4c2ZXdGNSSWT2ReSf0r+iugAooooAKKKKACiiigAooooAKKKKACiiigAooooAKKKKACiiigAooooAKKKKACiiigAooooAKKKKACiiigAooooAKKKKACiiigAooooAKKKKACiiigD8uv+CvH/JSvh/8A9gqf/wBHV6t/wsrwh/0NWif+DGH/AOKr2D9rL9i3R/2qb7QL+68RXfhzUNJilgWSC3WdJY3IbBUsuCCDgg/xHI6V8/f8OfdI/wCinXv/AIJ0/wDj1MR0P/CyvCH/AENWif8Agxh/+Ko/4WV4Q/6GrRP/AAYw/wDxVc9/w590j/op17/4J0/+PUf8OfdI/wCinXv/AIJ0/wDj1FwsdD/wsrwh/wBDVon/AIMYf/iqP+FleEP+hq0T/wAGMP8A8VXPf8OfdI/6Kde/+CdP/j1H/Dn3SP8Aop17/wCCdP8A49RcLHQ/8LK8If8AQ1aJ/wCDGH/4qorj4geCryMJceJNBnQMGCyX0DDI6HBbrWH/AMOfdI/6Kde/+CdP/j1H/Dn3SP8Aop17/wCCdP8A49RcLHQ/8LK8If8AQ1aJ/wCDGH/4qj/hZXhD/oatE/8ABjD/APFVz3/Dn3SP+inXv/gnT/49R/w590j/AKKde/8AgnT/AOPUXCx0P/CyvCH/AENWif8Agxh/+Ko/4WV4Q/6GrRP/AAYw/wDxVc9/w590j/op17/4J0/+PUf8OfdI/wCinXv/AIJ0/wDj1FwsdD/wsrwh/wBDVon/AIMYf/iqP+FleEP+hq0T/wAGMP8A8VXPf8OfdI/6Kde/+CdP/j1H/Dn3SP8Aop17/wCCdP8A49RcLGl4h8feENQ0HUrX/hKNEbzraSPb/aEJzlSP71fjDrNmum6teWqusiwzNGGU5BAJGQa/Yz/hz7pH/RTr3/wTp/8AHq/LD9o34Tz/AAR+NHijwbPcNd/2bdFI7ho/LMqEZVtuTjOfWgDzaiiikM9P/Zi8UN4O+P3gXVQ+wQ6rAGbOPlLgH+df0rqwkUMpyrDII71/LFpd6+m6laXcZKvBKsqkdipB/pX9Lv7PnjZfiP8ABHwV4kV/M/tDTIZC3qwG1v1U0AehUUUUAFFFFABRRRQAUUUUAFFFFABRRRQBW1K8/s7Tbq78pp/IieXyo/vPtBOB7nFfmP8ADX9sX45ftIXWq6v4b+L3wp+GMyX722n+B/Eu2O8mVTxvMis5J6ZTPIPC1+nd4062c7WqRyXIjYxJKxVGfHygkA4Gcc4NfmB8Zf2fvjZ8ZtM1vQ9b/ZP+HcPirUmZB8QNG1i2tBGxPFwyCQSyMB/e690xxQB7v+1Z+1x45+Cy/DT4b6JL4XHxW8W2yvea5qrm30bTgoAkm+ZuhYPt3McBejEgVw/gn9sD4mfB/wCN3gnwd8TvHPgD4p+GPGFwLGDXPB9xELjTbpiqosqJgbCzADK85yGBG01PjP8A8E9fG2ofDP4M6poNxoPjb4h/D3TlsLzSfEkYm07WYdxbyj5owQpYqN5UFe6kCt/9n34L+Ptb+K2j33jT9lX4RfDTwxp6maW8trazm1A3KkNFJbtCX2lWAPzAeobIFAHMa3+0l+0t46/bG+Kfwe+GF74dNrpYDWl5r9sqQaXEEiZpC0aM8jFn2gMGHPIPUYXgP9qr9rbxV8UfFH7P8Nl4LuPiZpEjS3Hi66V47O0tgqsWKIm1y3mR7TszyQUPJHtvwK/Z+8feDf2/PjN8SNY0H7H4L8Q2ixaZqf2y3f7Qw8jjylkMi/cb7yjpTPhD+z74/wDC/wDwUS+LHxO1PQPs3gfXNPSDT9U+2W7+e4jtlI8pZDIvMb/eUdPcUAVP2Qf2mvixqX7QHjT4GfGpNIvPFui2f9o2uraPFsjnjymQQAoK4lQg7VPUEVyXxo+J37UXg/VPFOqJ8W/g34dj0qSaa08JS3Ea3lzbISU3CUMwkdACF3jJOMrXeaB+z74/tf8Ago141+J0mjmz8D6l4WOmWmtrdwMftBW3AAhEnmjBR+SoHy9eRXzn8Pf2Ofi78PNJ8a+CdV/Z98C/ErVdXu7qa0+J3iHUrWTyhIuA5idWmLA5YAbMM3PHNAHtWq/tweKvG3/BOzU/jR4eS28O+M7KRbSZY4VngSdbhI3KpJu+VlbIDZIz14zXmWpfH39tBv2f9O+OcFx4Js/BlrpsV/Lo72/mX15bjAa5kHlhQG+9tSRCFPC1o+CP2Q/i1o//AATT8WfCm78J+V4+vtUa5t9J/tK0bfGZom3eaJfKHCscFweK+gb74K+M5v8AgnOvwvTRs+Oh4Jj0j+yvtUP/AB9CFVMfm7/L6gjdv2+9AFzUPjZ8Rvi3+yf4S+Inwvn8K+F9c1qCGe9n8XSMtlYRncszhwf4XHG4NkHpXzx4U/bG+L/wb+P3gTwh8SPHfw9+KvhbxhdLYrqPhGeLzbCVmVF3bAgHzOvDKdwPBBGKPiZ+xn8WvFH7FPwT8J2OjWt14l8F3S3mr+Db3UIli1EB2PlGVXMTHB7tjDnBzxXIeOP2S/i38SPih8IfFejfs5eEPhJpOg69bXGpaf4f1PT2uzElxE7Tzunlq6hVbaib3GGz1FAHo3x4/bG+I17+1J4i+E3hbx14J+DOleH7eORtd8aqudRkdEbbG0gMYX5xgcH5ScnpX1j+zTdfEW++HK3HxJ8SeFvFmrSXL/ZdW8Igm0uLbA2OW4DOTuztVQOnPWvnj9qDwd8V/F3xL1UTfsxeAfjL4T2LFpGqXOo29rqVum0blklmKsAW3EKgwP7xrrP+Cdv7NXjL9nH4e+KYfGK2ml3Gv6sdRtvDlhdNcwaTHjHlCQkgnoDgtwq5YnNAH1nRRRQAUUUUAFFFFABRRRQAUUUUAFFFFABRRRQB4V+3F4uTwX+yv8Q78v5bvpklvG3ozjaD+tfzmV+2n/BYnxyfD/7NtloUcmyTWtSjRgOpRPmI/SvxLoAKKKKAPsb/AIJQ+Hzrn7Xuhylf3djaXFyz+hCHH5niv3ir8gv+CKXgc6h8RvG3imSP91p9ilrG/wDtyNkj8ga/X2gAooooAKKKKACiiigAooooAKKKKACiiigAooooAKKKKACiiigAooooAKKKKACiiigAooooAKKKKACiiigAooooAKKKKACiiigAooooAKKKKACiiigAooooAKKKKACiiigAooooAKKKKACiiigAooooAK/FD/gsd8PR4Z/aG0jxDFHti17Td7MBwXjYKf0Ir9r6/PT/AILKfC+TxJ8E9F8XwQ+ZJoN4I5WA5WOUgE/TOKAPxiooooAK/c7/AIJL/FKPxx+zFa6A02+78NXDWhQnkRsS6/hya/DGv0A/4I6fFoeEPjxq3hK7n22niKxKwoxwBPGdwP1IyPxoA/aiiiigAooooAKKKKACiiigAooooAKKKKACiiigAooooAKKKKACiiigAooooAKKKKACiiigAooooAKKKKACiiigAooooAKKKKACiiigAooqK5uEtbeWaQ7Y41LsfYDJoA/Hn/gtB8Tv7c+KnhbwXBLmHR7NrqaMH/lpIcAn8Afzr84q9k/bA+JT/Fn9pDxz4iMvnQy6g8EBzkCOM7FA9uP1rxugAooqS3t5Lq4igiXfJIwRVHck4AoA/ar/AII4+BToP7O2qa/Km2bWNTfZkc+XGAAfoST+VffVePfsifDVfhN+zn4H8PbAlxHp8c9xxj97IN7flnH4V7DQAUUUUAFFFFABRRRQAUUUUAFFFFABRRRQAUUUUAFFFFABRRRQAUUUUAFFFFABRRRQAUUUUAFFFFABRRRQAUUUUAFFFFABRRRQAUUUUAFFFFABRRRQAUUUUAFFFFABRRRQAUUUUAFFFFABRRRQAUUUUAFeaftJfDaL4ufAvxn4Ulj3tqGnSpF6iQLlSPfIr0ukZQylSMgjBFAH8sms6XNomrXun3KFLi1meCRWHIZWIP8AKqdfUn/BSL4Ly/B79qLxKIoPK0jW2Gp2RA+XDj5l+oYH86+W6ACuu+EvxDvfhT8R9A8Vae7R3GmXaT/L1KgjcPxGa5GigD+oj4f+MbL4heB9C8S6fIslnqtnFdxlTkDeoJH4HI/Cugr89/8AgkH+0DH42+Et38PNQut2q+HWL2qO3LWzHt64J/Wv0IoAKKKKACiiigAooooAKKKKACiiigAooooAKKKKACiiigAooooAKKKKACiiigAooooAKKKKACiiigAooooAKKKKACiiigAooooAK+d/29vjQPgh+zT4o1eKfyNSvYTp9mQcN5kg25H0BNfRFfjj/wAFjvjzF4s+JGjfDjTrnzbXQE+03qo2VFw44U+4X+dAH5zSSNJIzsSzMcknqTSUUUAFey/se/DJ/i3+0d4H8PBN1vJqEc1ycZxEh3MfyFeNV+nn/BGH4Jfb/EfiX4lX8OYbKP7BYFhx5jcu34Dj8aAP1oghS2hjhiUJHGoRVHQADAFSUUUAFFFFABRRRQAUUUUAFFFFABRRRQAUUUUAFFFFABRRRQAUUUUAFFFFABRRRQAUUUUAFFFFABRRRQAUUUUAFFFFABRRRQAUUUUAFFFFABRRRQAUUUUAFFFFABRRRQAUUUUAFFFFABRRRQAUUUUAFFFFABRRRQB8Ff8ABXP4D/8ACwfgdF42sLbzNU8Lv5srKvJtmPz5+nWvxMr+o7xn4VsfHHhPV/D+pRLNYalayWsyMMgqykV/Nz+0R8G9R+A3xd8QeDtQjZfsNw32eRh/rISco34igDzeiiigD2f9kH46Xf7PXx68M+KopHFgtwtvfxKeJLdztcH8Dn8K/o00XWLTxBpNnqdhMtzZXcSzQzIch0YZBH4V/LJX7Jf8Elf2rh4+8Gy/C7X7zdreix+ZpzStzNbjqg9Sv8qAP0WooooAKKKKACiiigAooooAKKKKACiiigAooooAKKKKACiiigAooooAKKKKACiiigAooooAKKKKACiiigAooooAKKKKACiiigDg/jl8VNO+C3wp8SeMdTlEVvplo8qA9Xkx8ij1JOK/mz+IHjXUPiN401nxLqsjS3+qXT3MrMc4LHOPwHH4V+iP/BXv9qYeIvEFp8JPD91usNPIudXkjbh5v4Ivw6n8K/M6gAooooAltLWS+uobeFS8srhEUdyTgV/Rh+xV8G4vgf8As4+EfD3leXfSWy3l62OWmkG45+gIH4V+PP8AwTa/Z5/4Xt+0Rpkt9bef4f8AD5Go3u4fIxU/Ih+rYr9+FUKoVQAAMADtQAtFFFABRRRQAUUUUAFFFFABRRRQAUUUUAFFFFABRRRQAUUUUAFFFFABRRRQAUUUUAFFFFABRRRQAUUUUAFFFFABRRRQAUUUUAFFFFABRRRQAUUUUAFFFFABRRRQAUUUUAFFFFABRRRQAUUUUAFFFFABRRRQAUUUUAFfm1/wWG/ZvHibwLp3xT0e13ahozi21Ly15e3Y8Of91sfhX6S1j+MPCuneOPC+p6Bq9ul1puo27288TjIKsMGgD+W+ivaf2uP2edR/Zs+Mur+GLqNzpzOZ9OuGHEsBPy8+o6GvFqACu1+DPxW1f4J/EzQfGWiStHfaXcrNtBwJEz8yH1BGRXFUUAf0z/An406D8ffhrpHjDw/Mr217EDLDuy0EmPmjb3Br0Gvwf/4Jxftiy/s6fEmPQddum/4QrW5FiuA5+W2kJwso9B61+7NjfW+pWcF3azJcW06LJFLGcq6kZBB9MUAT0UUUAFFFFABRRRQAUUUUAFFFFABRRRQAUUUUAFFFFABRRRQAUUUUAFFFFABRRRQAUUUUAFFFFABRRRQAUUUUAFeI/te/tG6X+zT8G9W8SXUqHVJI2t9NtmPMs7DC8eg6n6V6/ruuWXhvR7zVdSuI7Sws4mmmmkYBUVRkkmv5+/27v2rr39qH4uXN1bzyL4T0p2t9KtsnaVBwZSPVv5UAfP3ijxLqHjHxFqOuatcvd6jqE73E8znJZmOTWXRRQAUqqZGCqCWY4AHekr61/wCCcP7L0v7QvxutbzUbYt4V0BlvL6Rh8sjA5SL3JP6UAfpz/wAEzf2ef+FG/s92N9f2vka/4l26hdb1w6xkfu0P4HOPevrqo4IY7WGOGJBHFGoRVUYAAGABUlABRRRQAUUUUAFFFFABRRRQAUUUUAFFFFABRRRQAUUUUAFFFFABRRRQAUUUUAFFFFABRRRQAUUUUAFFFFABRRRQAUUUUAFFFFABRRRQAUUUUAFFFFABRRRQAUUUUAFFFFABRRRQAUUUUAFFFFABRRRQAUUUUAFFFFABRRRQB8hf8FJP2VF/aI+C9xqej2gk8Y+Hla7sio+aeMD95F75HT3Ffgxc28tncSQTxtFNGxR43GCrA4II9a/qjIDAgjIr8cv+CqX7GH/Cv/EUvxT8JWO3QNSlzqdvCvy20x/jwOisf1oA/OWiiigAr9U/+CWf7dQVbT4P+PNR/wBnQdRuX/8AJdmP/jv5V+VlTWV7Pp15DdWsz29zC4kjljYhlYHIIPrQB/VDnPI5FLX54/8ABOb/AIKFW/xW06z+Hnj+9SDxZbII7HUJmAF8oGApP98frX6HUAFFFFABRRRQAU2SRIY2eRlRFGSzHAFKSFBJ4FfkB/wUq/b+1zWvGGo/DHwBqUmmaLp7GDU9QtXxJcy90Vh91R0PrQB+j/jD9sD4M+AtSaw1z4jaBZXinDQteIzKfQ4PBrpvh58dfh/8V1Y+EvFula4yjJjtblWcD125ziv5lZppLiVpJXaWRjlnckkn1JrT8L+LNZ8Fa1bavoWpXOlalbOHiubWUo6n6igD+pKivgz/AIJ6/wDBQq2+O2nweCfHV1FaeOLZAsFyxCpqCgdR/t+o71950AFFFFABRRRQAUUUUAFFFFABRRRQAUUUUAFFFFABRRRQAUUUUAFIzBVLMcKBkk0tfnX/AMFIv+Cg1r8M9K1H4Z+AL5Z/Ft1GYdR1CBgRp6EcqD/z0I/KgDx3/gqJ+3Z/wlN9d/CXwLfZ0m3bZrWoQNxO4/5YqR/CO/5V+ZtPmmkuJnlldpZZGLO7nJYnkkn1plABRRRQBo+HPD1/4s1yx0jS7d7u/vJVhhhjGSzMcAV/Q5+xX+zjZ/s1fBDSNB8tTrl0gutUnA5aZhnb9F6V8Wf8Em/2NxCifGHxZY5ZgU0S3nXp2M+D+lfqdQAUUUUAFIrBuQcj2or8fdI/4KLeK/2a/wBqjx74f8QST+I/ADa5Mr2btums1JGWhJ7D+6eKAP2DorjfhT8XvCnxr8IWviXwhq0OraZcD70bfNG3dXXqrD0NdlQAUUUUAFFFFABRRRQAUUUUAFFFFABRRRQAUUUUAFFFFABRRRQAUUUUAFFFFABRRRQAUUUUAFFFFABRRRQAUUUUAFFFFABRRRQAUUUUAFFFFABRRRQAUUUUAFFFFABRRRQAUUUUAFFFFABRRRQAUUUUAFFFFABWH418G6T8QvCupeHdctI77StQhaCeGQZBUjH51uUUAfzxfts/sjaz+yp8Tp7Fo5LrwpqDNNpOo4+VkzzGx7OvSvnSv6Wv2ifgD4c/aO+Geo+EvEVurLMpa1uwo8y2mA+V1P1r+fD9oH4B+Jv2dfiHf+FvElo8TwuTb3W0+Xcx54dT3yKAPNKKKKALWl6pd6LqFvf2FxJaXlu4kimiYqyMDkEEV+wv7AP/AAUqs/iRDp/gD4mXsVl4mVVhstWlIWO9xwFc9n/nX44U+GaS3mSWJ2jlQhldDgqR0INAH9UisGUMpyDyCKWvyL/Yb/4KnXHhddP8DfFyd7rSl2w2fiI8yQDoFm9V/wBrqO9frNout2HiTSrXU9LvIb+wukEsNxbuHR1IyCCKAL1FFFAHO/EbVJtE8A+Ir+2BNxb2E0keOu4IcV/MT4jvrjU/EGp3l1I01zcXMkssjdWYsSSfxr+o/UrCLVdPurKdd0FxE0Tr6qwIP86/nD/ay+Ber/s//G7xH4d1G2eO0a6kuLCfbhJoHYshB9gcfhQB45RRRQBe0PXL/wAM6vaappd1LZX9rIJYbiFirIwOQQa/bz/gnv8At8WP7Q2g2/hDxZdRWnj2yiCguQov0UffX/a9RX4a1qeGPE2qeDdfsda0W9l0/U7KVZoLmFirIwOQQaAP6lKK+Pf2A/26tL/ad8Jx6Fr00Vh8QdNiAubckAXqAf66P39R2r7CoAKKKKACiiigAooooAKKKKACiiigAooooAKKKKACkJCgk8Co7i5is7eSeeRYYY1LPJIcKoHUk1+Xn7fX/BTqKxXUPh/8Jr9Zbn5oL/xBAcqnYpEe5/2u1AHoP/BQr/gorYfCXSr3wF8PL+O98ZXCmK7v4WDJp6kYOD3k/lX4y6hqFzqt9cXl5PJc3dw7SyzSsWZ2JyST3JNJeXtxqN1LdXUz3FxMxeSWRizMx6kk1DQAUUUUAFfVH7BP7HOp/tP/ABIhuL2CS38GaVIsuoXjDCyYOREvqT/KvLf2a/2efEX7SfxM07wroMDBJHD3d4VOy2hB+Z2P0r+hT4H/AAX8O/AT4d6X4R8N2qw2dpGBJNgB55MfNIx9SaAOv0LRLLw3o1lpWm26WlhZwrBBDGMKiKMAAVfoooAKKKKAEr+bb9rz/k5r4k/9hmb+Yr+kmv5tv2vP+TmviT/2GZv5igBv7Of7UHjj9mPxcuteEtQZbeRl+2aXMxNtdKOzr6+jDkV+4/7J/wC2n4H/AGqvDkT6VcppnieGMG90O4cebG3cp/fTPcV/O5W54J8ca78OfE1l4g8N6ncaRq9m4khurZyrKfT3B9DQB/UZRXwF+w//AMFOtD+MsNl4Q+I00Og+NOIoL5iEtr/sOf4HPp0PavvxWDKCDkHkEUALRRRQAUUUUAFFFFABRSV5/qHxy8L6XqFzZzSXXnW8rQvtgyNykg4OemRXnY3MsHl0VPGVY009uZ2udeHwmIxbccPBya7K56DRXm3/AA0B4T/56Xn/AID/AP16P+GgPCf/AD0vP/Af/wCvXkf60ZJ/0GQ/8CR3/wBi5l/z4l9zPSaK82/4aA8J/wDPS8/8B/8A69H/AA0B4T/56Xn/AID/AP16P9aMk/6DIf8AgSD+xcy/58S+5npNFebf8NAeE/8Anpef+A//ANej/hoDwn/z0vP/AAH/APr0f60ZJ/0GQ/8AAkH9i5l/z4l9zPSaK82/4aA8J/8APS8/8B//AK9H/DQHhP8A56Xn/gP/APXo/wBaMk/6DIf+BIP7FzL/AJ8S+5npNFebf8NAeE/+el5/4D//AF6P+GgPCf8Az0vP/Af/AOvR/rRkn/QZD/wJB/YuZf8APiX3M9Jorzb/AIaA8J/89Lz/AMB//r0f8NAeE/8Anpef+A//ANej/WjJP+gyH/gSD+xcy/58S+5npNFZvh/X7TxNpMGo2LM1tMCV3rg8EjkfhWlX0lOpCtCNSm7xkrp909meROEqcnCas1owooorQgKKKKACiiigAooooAKKKKACiiigAooooAKKKKACiiigAooooAKKKKACiiigAooooAKKKKACiiigAooooAKKKKACiiigArxD9qz9lXwv+1J8P59G1iBLfV4VL6fqiqPMt5Mcc91PcV7fRQB/Mz8dPgb4o/Z98f3/AIV8U2L211bsfKmwfLuI8/K6HuDXntf0d/tSfsn+D/2p/BMmkeIIBa6rCrGw1eFR51s+OPqueor8HP2jv2afGP7Mvjmfw94psmWJiTZ6hGpMF3Hnhkb+Y6igDyeiiigAr6g/ZJ/b88efst3kOnxyN4i8HM+ZdFupDiME8mFv4D7dK+X6KAP6Qv2c/wBrL4fftNeH0vvCerJ9vRAbnSbkhLqA9wV7j3HFezV/Ll4N8ba98PfEFrrnhvVrrRtVtW3RXVpIUce3HUex4r9L/wBl3/gsJPbfZdA+MNh58fCL4isF+Ydsyx/1X8qAP1erwL9r79knw3+1T8P5dNv4o7XxDaqz6bqir88T4+6T3U9xXq3gD4meFviloNvrPhXXLPW9OnXcstrKGx7EdQfY109AH8xvxh+EHiX4H+O9R8KeKLCSy1GzcqCynbKvZ1PcGuJr+hn9s/8AY18PftW+BZYHWPTvFtnGzabqgXkNj/Vv6of0r8D/AIm/DTxB8IvGmpeFvE+nyadq9hIY5IpBww7Mp7qexoA5aiiigDe8C+Otb+G3irTvEfh2/l03V7CUSwXELYIIPQ+oPpX7x/sN/tuaJ+1R4Njtb2SHT/G9hGBfWG7Hm4482MdwfTtX8/1dR8M/iVr/AMJPGWneJ/DV/Jp+qWMgkSSNsBh3Vh3B9KAP6gKK+bP2K/2y/D/7VXgWNxJHYeLrFAuo6YzANn/nog7qf0r6ToAKKKKACiiigAooooAKKKKACiiqmqatZaJYy3moXcNlaRKWkmncIigdyTQBbrhfi58a/B/wP8LXOveL9Zt9Ls4VLKjsPMlP91F6k18a/tWf8FZfB/wxW70D4axJ4w8RgFG1Ddixtm6Z3dZCPQce9fkv8Xvjl41+OniSbW/GWuXGq3TsSkbMRFEPRE6AUAfSv7ZX/BSjxj+0Nc3fh7wvJN4W8C5KeRC5Fxer6ysOin+6PxzXxdRRQAUUUUAFeg/Az4G+Kf2gviBp/hPwpYSXd5cOPNmx+7t48/NI7dAoFW/gH+z34v8A2i/G9r4c8J6e9xI7Dz7pgRDbJnl3bsK/ej9kz9k3wt+yr4Bi0jSY1vNcuFD6lq7oBJcSeg9EHYUATfspfsq+F/2V/h7DomjQpc6vOqvqWrMv7y5kxzz2UHoK9uoooAKKKKACiiigBK/m2/a8/wCTmviT/wBhmb+Yr+kmv5tv2vP+TmviT/2GZv5igDyGiiigBUdo3V0YqynIZTgg+tfo3+w7/wAFSNT+Hslh4L+K9zLqvhrCw2uuNl7iz7ASf309+o96/OOigD+pTwz4n0rxlodprOiX8Gp6XdoJILq2cOjqe4IrUr+e39kn9u7x1+yrqQtrSRtf8JSNun0K6lIQE9WibnY304NfuN8B/wBojwV+0Z4Ph8QeDtUju4yB59m5AntmI+7ImeD+lAHplFFFABRRRQA2T/Vt9DXxh4q/5GjWP+vyb/0M19nyf6tvoa+MPFX/ACNGsf8AX5N/6Ga/EPFP/csN/if5H6PwV/vFb/CvzMqiiiv5xP1wKKKKACiiigAooooAKKKKACiiigD6m+Bv/JPbH/ef/wBCNegV5/8AA3/kntj/ALz/APoRr0Cv7jyP/kVYX/r3D/0lH825l/vtf/HL82FFFFe0ecFFFFABRRRQAUUUUAFFFFABRRRQAUUUUAFFFFABRRRQAUV8if8ABTL43eMfgP8AAey1/wAE6s2j6rJqkVu06orkoQ2Rgj2r8tP+HmH7RP8A0P03/gNF/wDE0Af0DUV/Pz/w8w/aJ/6H6b/wGi/+Jo/4eYftE/8AQ/Tf+A0X/wATQB/QNRX8/P8Aw8w/aJ/6H6b/AMBov/iaP+HmH7RP/Q/Tf+A0X/xNAH9A1Ffz8/8ADzD9on/ofpv/AAGi/wDiaP8Ah5h+0T/0P03/AIDRf/E0Af0DUV/Pz/w8w/aJ/wCh+m/8Bov/AImj/h5h+0T/AND9N/4DRf8AxNAH9A1Ffz8/8PMP2if+h+m/8Bov/iaP+HmH7RP/AEP03/gNF/8AE0Af0DUV/Pz/AMPMP2if+h+m/wDAaL/4mj/h5h+0T/0P03/gNF/8TQB/QNRX8/P/AA8w/aJ/6H6b/wABov8A4mj/AIeYftE/9D9N/wCA0X/xNAH9A1Ffz8/8PMP2if8Aofpv/AaL/wCJo/4eYftE/wDQ/Tf+A0X/AMTQB/QNRX8/P/DzD9on/ofpv/AaL/4mj/h5h+0T/wBD9N/4DRf/ABNAH9A1edfHX4C+Ef2h/At14X8XadHd20gLQXAA862kxw8bdQf51+GTf8FIP2imYn/hZN+uewghx/6BSf8ADx79or/opWof9+Yf/iKALH7Xn7Bvjj9lnWZrp4X13wbK5+y61bISFHZJR/A36HtXzFX1Y3/BTL443/he40DW9X03xLp9wrJMuradHMZFP8LcAY/Cvl/V9QXVdSnu1tYbITOX8i2BEa57KCTgfjQBTooooAKKKKAOy+Gfxi8Z/B3WU1Twf4hvtDugQW+zSkI+P7y9G/EV+if7Pv8AwWYu7OO20z4saD9rVQFOsaQuHPu8RPX6H8K/LqigD+k34Q/tW/Cz45W8T+EvF9hfTyDP2OSTyp19jG2DmvMP26P2JNE/aq8Fte2EcNh4606NjYagox5w6+TIe6nse1fgRY6hdabcpcWdzNa3EZ3JLC5RlI7gjkV9DfD/AP4KFfHv4b20Vrp3j27vbSMbRDqkaXQwO25xu/WgDxDxx4H1v4ceKNQ8PeIbCbTdVsZWimgmUggg9R6j3rBr1X47/tI+Kv2jNVt9V8Yw6ZLq0K7Pt1naCCR19Hwfm/GvKqACiiigDs/hH8XPEvwS8cad4r8K6hJYanZyBhtPySrnlHHdTX76/scftc6B+1h8OY9WtPL0/wAR2n7vU9ILgvCwJAdfVGAyD2ziv5167T4T/GTxj8D/ABVH4i8E65PoeqqpjMsOGV1PVWVgVYfUUAf06UV+An/D0P8AaM/6HhP/AAXW/wD8RR/w9D/aM/6HhP8AwXW//wARQB+/dFfgJ/w9D/aM/wCh4T/wXW//AMRUtv8A8FSP2ioJQ7eMoZwP4JNOhwfyUUAfvtRX4K/8PWf2hv8AoZNP/wDBclH/AA9Z/aG/6GTT/wDwXJQB+9VZHibxdovgzTJdQ1zVLXSrKNSzTXUoRQB9a/Ce6/4KpftEXVu8a+KrO3LDHmRadFuH0yCP0r59+JPxu8e/GC/a78ZeLNU8QSE7hHd3DGJf92MYVfwFAH6+fH//AIK6fDb4bxXNh4HtZvHOtrlVkjbybNG9WkIJP4A1+YX7QH7anxT/AGjL2U+I9ektNJZiY9J04mK3QehGct+JrwmigAooooAKKKKACvff2UP2O/GX7U3i6Kz0m0ksvD8Lg32sTIRDCvcA/wATegFeC28ohmSQxrKFOdj52t7HHavp7wT/AMFHvjN8N/DtpoPhi90XRdItV2xWtppUaqPc9yfc80Aftt+z5+zp4P8A2b/A9v4d8K2CRHaDdXzKPOuZMcszf0r1GvwV/wCHrP7Q3/Qyaf8A+C5KP+HrP7Q3/Qyaf/4LkoA/eqivwV/4es/tDf8AQyaf/wCC5KP+HrP7Q3/Qyaf/AOC5KAP3qor8Ff8Ah6z+0N/0Mmn/APguSj/h6z+0N/0Mmn/+C5KAP3qor8Ff+HrP7Q3/AEMmn/8AguSj/h6z+0N/0Mmn/wDguSgD96a/m2/a8/5Oa+JP/YZm/mK9g/4esftDf9DJp/8A4Lkr5b8aeMNT+IHizVPEesyrPqmpTtcXMiLtDOepA7UAYtFFFABRRRQAV3/wV+OfjD4AeM7fxL4N1WTTr6PAljzmK4TOSki9GFcBRQB+/P7Gv7f/AIO/ag0m20u8li0Dx3GmLjSZnwsxHV4SfvD26ivq+v5ZNF1vUPDerWup6VeT6fqNrIJYLq2cpJGwOQQRyDX6zfsO/wDBVC18TfYvBPxfuY7LVPlis/EbELFOegWb+63+10PtQB+mtFRW9zFeW8c8EizQyKHSSMgqwPQgjqKloAbJ/q2+hr4w8Vf8jRrH/X5N/wChmvs+T/Vt9DXxh4q/5GjWP+vyb/0M1+IeKf8AuWG/xP8AI/R+Cv8AeK3+FfmZVFFFfzifrgUUUUAFFFFABRRRQAUUUUAFFFFAH1N8Df8Akntj/vP/AOhGvQK8/wDgb/yT2x/3n/8AQjXoFf3Hkf8AyKsL/wBe4f8ApKP5tzL/AH2v/jl+bCiiivaPOCiiigAooooAK8X/AGgP2qPDPwBvNF0a40vWvF3jLXCw0vwv4btPtN9cgfefbkBUHdiexwDg49or4h+P2sP+zZ+2to/xu8VaTf6h8N9S8Mnw/da1Y2j3X9hzrIXDyKoLKjggZA9evSgD2b4VftYWfji48R2fivwJ4t+F194fsf7SvT4psPLtfs3OZEuFJRgNrcHBODjODjzj/h41pd5p03ifSfhB8SNZ+G0LlZPGNrpC/ZjGDhp0jLh2iGCS/GADkZ4pnj/44eGP26vgj8VfAPwifV9ZuH0NvI1ubS57TTrictkWyyyqp3naAQVAw2ecGuP8E/8ABQb4Z+BfgfpngTX9E17TPibpekLo7/D0aFcm6nuUi8sRxkR+WVcjIJYHB6UAe5/Fr9tj4d/CX4c+A/HtxPca14Q8X6hDYWmqacFKQLIjP50gcqQqhG3AfMCMYr0T4tfGfwz8G/hVq3xB129U6BYWouVeBgzXO7HlpFk4ZnJUDnvX5y+MPgNf+D/2WP2YvAnj/TFifVviIkt9o0hP+jQ3S3D/AGc88FVfBx0P0rqfFn7OfxM1Dwj4u+H/AMQy978IfhbpOoah4evZS27XHeGQ2SynPzC1TII/vBaAPpHxl+3VoPhX4b/Czxba+CvEviFviIP+JTo+lRwyXgbYHCMpcAkg/wAJNdV8Mf2nLjxs2uz+Jvhl4y+F+kaPYtfz6t4vs0t7ZkU/MFZWbkDLY9BXwJ8YNV0jQ/2ZP2KL/XvEep+ENGtyr3Wu6Nu+2WUYgXMkW1HO4eyn6V634c1bwL+0Z8EvjD8NvhR8cPG3xa8W6roRlitvGZnCwBGGFjZ7aFV8xiFPXqOwoA9Vt/8AgopYatbv4g0T4OfEvXvh4kvl/wDCXWOjBoJF3bTNHEW3tEOctwRjkZ4r0L4zftheGfhNrOg+GrHw/wCIvHHjnXbUXtl4W8P2DPerAR/rZ1fb5K+u75hg8cGvF/hH/wAFDvhd8P8A4XeGfBfiLTPEWh/EfR7KDSpvAtvoFy9608ahNsWIxGQ23cMsDg9KreOPHEH7L37ZmtfF7xzpGqx/Dfxt4ctLOLxFHp8s/wDY08eCYbiNFLx7sDjHXscHAB7n8Ev2utC+LXjS98Dav4a8QfDrx/awfaj4d8UWohluIR1lgcErKg9Rg98Y5r3ivhHQ/HVj+2P+2j8M/HXw1stQn8B+ALG+/tHxbc2U1pBfyTx7EtYhIFZ9pO45Xjn8fu6gD4K/4LJf8mxad/2G4P5NX4mV+2f/AAWS/wCTYtO/7DcH8mr8TKACiiigAooooAKKKKACiiigAooooAKKKKACiiigAooooAKKKKACiiigAooooAKKKKACiiigAooooAKKKKACiiigAooooAKKKKACiiigAooooAKKKKACiiigAooooAKKKKACiiigAooooAKKKKACiiigAooooAKKKKACiiigAooooAKKKKACiiigAooooA+5P2I/+ClfiP4B3Nh4V8by3HiHwHkRo7Hfc2C+qE/eQf3fyr9n/h58RvDnxW8K2fiPwtqtvq+kXa7o57ds/gR2I9DX4D/sl/sR+N/2qfEEX9n276T4VhkAvNcuIz5SDuqf32x2Ffud+z3+zv4S/Zq8BxeF/CVtIkBIkubqZt0lzLjBduw+g6UAemyf6tvoa+MPFX/I0ax/1+Tf+hmvs+T/AFbfQ18YeKv+Ro1j/r8m/wDQzX4h4p/7lhv8T/I/R+Cv94rf4V+ZlUUV5n8XPjla/CfVvD+mN4f1bxFqGttIlra6SiPIWQAkYZhng9vSv57wuFrY2qqGHjzSd9PRXe/ZK5+q1q9PDwdSq7JfroemUV5b8PP2gdJ8ceJrnw1faJrXhDxFDb/axp+v2whaWEdZEIYggd+n6V32m+K9E1qSJNP1jT755Y2ljW2ukkLoDtLAKTkA8E+taYjA4nCTcK1Np7+Vns7rS3mRRxNGvHmpyTNSisrS/Fuh65ez2enazp9/d2/+ut7W6jkkj/3lUkj8ar+IvGuj+G/MgutTsYtS8l5obCa6SOabAJwqk5OcdgawVCq5+zUXftY19pBR5uZWN2ivO/hJ8ZLH4kfDvQfE9+lr4el1iR4oLKe8VizhyoRGIXexxnAGea7O88SaTp95JaXOp2cF5HAblraS4RZBEOr7Sc7ffpWtfB4jD1pUKkGpRbTW+qdntpo+xFPEUq1ONWEtGk189UaNFcd8Mvix4f8AizoZ1PQ528tZZImt7jYsy7G2lioY4XI4PetzTfFuh6xqE9hYazp99fW/+utra6jkljx13KCSPxqauFr0Jzp1INSjurbeo4VqdSMZwkmpbeZq0UUVym59TfA3/kntj/vP/wChGvQK8/8Agb/yT2x/3n/9CNegV/ceR/8AIqwv/XuH/pKP5tzL/fa/+OX5sKKKK9o84KKKKACiiigApDzweRS0UANRFjUKqhVHQKMCjy13h9o34xuxzTqKACiiigAooooA84b4S3U/xui+IM3iOZIrewbT4tJtYDEkiNzid95EoVtzKNilSx5PSvRmUMpBGQeCDS0UAIqhFCqAqjoAOKWiigD4s/4KtfDzxJ8SP2d7HTfDOi3muXqavDK8FlEZHVAGyxA7CuT8M/8ABO34B3HhvSZb/wCHub6S0ha4LavfqfMKAtkCfA5zwK+9NV/5Btz/ANcz/KvLIf8AVJ/uivxvxHx+LwNLCvCVpU7uV+WTjf4d7NHt5ZThUc+eKe2584/8O5/2eP8Aoni/+DnUP/kij/h3P+zx/wBE8X/wc6h/8kV9I0V+Hf2/nH/QZU/8GS/zPd+r0f5F9yPm7/h3P+zx/wBE8X/wc6h/8kUf8O5/2eP+ieL/AODnUP8A5Ir6Roo/t/OP+gyp/wCDJf5h9Xo/yL7kfN3/AA7n/Z4/6J4v/g51D/5Io/4dz/s8f9E8X/wc6h/8kV9I0Uf2/nH/AEGVP/Bkv8w+r0f5F9yPm7/h3P8As8f9E8X/AMHOof8AyRR/w7n/AGeP+ieL/wCDnUP/AJIr6Roo/t/OP+gyp/4Ml/mH1ej/ACL7kfEH7S//AAT9+Feh/A7xVffDz4dzHxnDDEdOFrqN7cSbzNGG2xvMyt8hbqDXyx+y3+w/qfiTxdq1v8WfBeuaPpEdj5lpJNvtQ8/mKMBu/wApbiv2S0f/AJClr/10X+dHxy/5Bum/9dW/9Br9RyzNcfLg7H4uVebqRlpJyba0hs27rdnzGbxjSl7itp09T4F/4d2/Bn/oGap/4MpKP+HdvwZ/6Bmqf+DKSvpmivxH/WzPv+g2p/4G/wDM+V9pPufM3/Du34M/9AzVP/BlJR/w7t+DP/QM1T/wZSV9M0Uf62Z9/wBBtT/wN/5h7Sfc+Zv+HdvwZ/6Bmqf+DKSj/h3b8Gf+gZqn/gykr6Zoo/1sz7/oNqf+Bv8AzD2k+58zf8O7fgz/ANAzVP8AwZSUf8O7fgz/ANAzVP8AwZSV9M0Uf62Z9/0G1P8AwN/5h7Sfc+Zv+HdvwZ/6Bmqf+DKSvhf9qL4CN8OfjRrWg+DtA1abQLeO3aBhFJcctCjP8+OfmJ+lfsDXuvwhgjk8Hxlo1Y+a/JUHvX6x4a55meZZzUo4zETqRVOTtKTavzQ119WdOHnKU7Nn83UPwt8Y3Cb4/C+rsvr9ik/wp/8Awqfxp/0Kusf+AUn+Ff08fZYf+eMf/fIo+yw/88Y/++RX9NHoH8w//Cp/Gn/Qq6x/4BSf4Uf8Kn8af9CrrH/gFJ/hX9PH2WH/AJ4x/wDfIo+yw/8APGP/AL5FAH8w/wDwqfxp/wBCrrH/AIBSf4Uf8Kn8af8AQq6x/wCAUn+Ff08fZYf+eMf/AHyKPssP/PGP/vkUAfzD/wDCp/Gn/Qq6x/4BSf4Uf8Kn8af9CrrH/gFJ/hX9PH2WH/njH/3yKPssP/PGP/vkUAfy4ap4W1nRW26hpV5ZN6TwMn8xWX061/Uhr/g7QfFVk1nrOjWGq2rdYby2SVfyYV8wfHL/AIJ+/s5a1ot/ruuaFa+C4reNpJ9TsLg2yIAOpUnZ+QFAH4HUV6L8eNH+HegfEC+sfhnrOpa94chYot5qMKxl2B5KYPzL7kCvOqACiiigAooooAK2NJ8G69r1uZ9N0a+voAcGS3t2dc+mQK+kf2P/ANgLxr+0/q0GoTwyeH/BUbj7Rq1whBlXusQP3j79BX7lfCX4P+F/gr4D0zwl4X06O00uxj2ruALyN/E7nuxPJoA/mx/4Vl4u/wChZ1b/AMA5P8KvaP8ABfx74gv47LTfB2t313J92GCwkZjj0AFf04fZYf8AnjH/AN8ilWCNGysaqfUKKAP5s/8Ahk34z/8ARL/Ff/gpm/8AiaP+GTfjP/0S/wAV/wDgpm/+Jr+lCigD+aHWf2afiv4esZL3Uvh14msbSMZeabS5lVR6kla4I6HqImEX2C58z+55LZ/LFf1NEZGCMismLwhoUF4byLRdPjuydxnS1jDk+u4DNAH82+i/s1/FbxHYpe6X8O/Et9aScrNBpkzIfoQtX/8Ahk34z/8ARL/Ff/gpm/8Aia/pQooA/mv/AOGTfjP/ANEv8V/+Cmb/AOJo/wCGTfjP/wBEv8V/+Cmb/wCJr+lCigD+a/8A4ZN+M/8A0S/xX/4KZv8A4mj/AIZN+M//AES/xX/4KZv/AImv6UKKAP5r/wDhk34z/wDRL/Ff/gpm/wDiaP8Ahk34z/8ARL/Ff/gpm/8Aia/pQooA/mv/AOGTfjP/ANEv8V/+Cmb/AOJo/wCGTfjP/wBEv8V/+Cmb/wCJr+lCigD+a/8A4ZN+M/8A0S/xX/4KZv8A4mj/AIZN+M//AES/xX/4KZv/AImv6UKKAP5r/wDhk34z/wDRL/Ff/gpm/wDiaP8Ahk34z/8ARL/Ff/gpm/8Aia/pQooA/mv/AOGTfjP/ANEv8V/+Cmb/AOJo/wCGTfjP/wBEv8V/+Cmb/wCJr+lCigD+a/8A4ZN+M/8A0S/xX/4KZv8A4mvM9Y0e+8P6pc6bqdpNYahauY57a4QpJGw6qynkGv6m6/m2/a8/5Oa+JP8A2GZv5igDyGiiigAooooAKKK1/CfhHWPHXiCz0TQdOuNV1W8kEcNrbIXd2PoBQBkqrSMFUFmJwABya/Qj9h7/AIJf6x8WJbHxl8TIJtE8IcS2+mnKXN8OoyP4EPr1PavpD9h//gl3pHwvhsfGXxRt4dZ8VZWa30dwHtrI9QX/AL7/AKD3r9DlUIoVQFUDAA6CgDH8IeD9F8A+HbLQfD2m2+k6TZoI4LW2QKigfzPvWzRRQA2T/Vt9DXxh4q/5GjWP+vyb/wBDNfZ8n+rb6GvjDxV/yNGsf9fk3/oZr8Q8U/8AcsN/if5H6PwV/vFb/CvzMqvmX9qKPW5vjN8HE8NzWVvrjXV39ll1FGeBW8scuF5IxnpX01RX4NleP/s3E/WOTm0krPb3ouOuj2ve3XY/TsZhfrlH2XNbVO/o0/0+R4X4b+Dviz/hNL3x94/8Qafqms22lTafY2Wj2zRW0EbAlmJc7mY/pmvGPhP8KT/wxnqmt+EdOZ/G2rWc6PeQ5NzJEJsNFGc8DYuAB1Pua+26K9qlxNiqcHFpfFTdl7seWnzWhypapuV35rq2efPJ6EpXv0ktdXeVveu+qSsfDdnc+AvE+r/DHTvhBok1j440vULdtVmttOltntbdRi4F1IygPnkclueM80rSeAvD/iT4o6b8XNCn1PxvqmoXD6U0mmzXMt1bFf3AtXVSExwM5GPXivuPAGeOtGBwcc16P+tSvy+zny239p+8vzc3x8nw3+zy/O+pyf2I7X543vtye7ty/Dzb263+Vj4R0WaTQ/2bfgl4oltbifSNA8Qm81GW3jLmCHfIC5A5wDXd6D4y8OfHD9qp5tOtpdU8N3Xg2e1El7ZyRRXimZNwVZFBZecE4xnNfWdHTgcCsa3E0K3tajoNVJe0s1PSKqS5tuXVp7O606dS6eTyp8kfaXiuS65d3BW3vomuln6nw18KLOwg+BvxD8IeF7P+z/i3FHepc2sVq8V41uJ/lQPtAb5DhQDnmoLe48BeJB8NdI+E+hT2XxF0y/tW1GW306W3ltI1GLj7VIygOCcjkt+FfdmBknHNGBycc1vLiy9SpV9lK8pOXx6XceVqS5fegvsx0tqru5msjtCEOdWikvh1sndNa6S7vW/ZBRRRX58fVH1N8Df+Se2P+8//AKEa9Arz/wCBv/JPbH/ef/0I16BX9x5H/wAirC/9e4f+ko/m3Mv99r/45fmwooor2jzgooooAKKKKACiiigAooooAKKKKACiiigAooooAKKKKAKmq/8AINuf+uZ/lXlkP+qT/dFep6r/AMg25/65n+VeWQ/6pP8AdFfhnij/AAsJ6z/KJ72U7z+Q+iuO8P8AxY8O+I5PF0cNxJbSeFbuS01VLuPyzCVQSb/dCh3Bu4rkdJ/aq8A6lp2p38tzf6baado9vrs73tk6EWs7ssLBRlmZypwoGeRxzX4dHAYqd+Wm3a19O+333Vj3vaQW7PX6K4T4efF6w+JseoLp+i+I9EuLRFfZ4k0O504SBs7WQyoA4yDnaciuY+AvxpPxSi8TyXGvaNqcOhXH2OeWw0+eyw67i0n72V8xY4VgcNsY8Z2hvAYiMakpxtyWvo+uwe0i2knuexUV4rp37Xvw61LVLOFJ9Zh0i9uRZWniS40W6i0e5mLbVRLtkEZy3AOdpPQ9K7H4sfGHQ/g5pOm3+t2+p3i6jeLYWtvpNk93PLMyswVY0+Y5CnoDTll2MhUjRlSkpS2Vnd/8N1D2kGm09EdzRXlWi/tM+Btc0fxLeJcalY3fh2yOoalpGqaZPZX8MAUt5nkTKrMpwcMuRnjNWPhn8fNK+KmpR2umeGfGOnQy232uLUNa8O3NlaSJ8uNs0ihWJDAgA8jJHSiWXYunGU50mlHe6tbr+WoKpB2Se56zo/8AyFLX/rov86Pjl/yDdN/66t/6DRo//IUtf+ui/wA6Pjl/yDdN/wCurf8AoNfpOV/8kPmX+L9KZ8tnXxfL9Tx6iiiv57PjwooooAKKKKACiiigAr3j4Pf8ibF/11f+deD17x8Hv+RNi/66v/Ov2jwn/wCR7U/69S/9KgdWG+M7iiiiv61PTCiiigAooooAKKRmCqWYgAckmvh79tD/AIKY+GPgHBd+GvBZg8TeNyCh2tutrI+rkfeYf3R+NAH0R+0R+054I/Zp8Jy6z4r1KOOdlP2XT42BnuG7BV/rX4h/ta/tyeN/2pdalhuriTR/CcTk2ujW7kJjs0mPvNXjfxS+LPiv4zeLLrxJ4w1m41nVLhifMmb5Y1/uovRVHoK5GgAooooAKKK9B+C/wJ8Y/Hzxdb+H/CGkzahdSMBJKFIihXuzt0AFAHC6fp9zqt5DaWdvJdXUzBI4YVLM7HoAB1Nfp3+xD/wSsuNWWx8afGC1ksrbd5lr4bcYlkAPDTf3QcZ29cGvqz9jf/gnn4N/ZnsrbWtUhh8R+OmUF9RnQMlq3cQg9P8Ae619dUAUdE0PT/Del22m6XZw2FhboI4re3QKiKOgAFXqKKACiiigAooooAKKKKACiiigAooooAKKKKACiiigAooooAKKKKACiiigAooooASv5tv2vP8Ak5r4k/8AYZm/mK/pJr+bb9rz/k5r4k/9hmb+YoA8hooooAKKK+uf2Mf+Cevi79pvU7bWNUjm8O+A43Bm1KVMPcgdUhB6n/a6CgDxX4C/s4eOf2j/ABUND8GaS95Io3T3UnyQW6+rv0FfuT+yP+w74I/ZV0KKWzgj1jxfNGBea5Onz5I5WIH7i/qe9er/AAd+C3hH4EeDbbwz4O0mLTNPiALsoBknfGN8jdWau5oAKKKKACiiigBsn+rb6GvjDxV/yNGsf9fk3/oZr7Pk/wBW30NfGHir/kaNY/6/Jv8A0M1+IeKf+5Yb/E/yP0fgr/eK3+FfmZVFFFfzifrgUUUUAFFFFABRRRQAUUUUAFFFFAH1N8Df+Se2P+8//oRr0CvP/gb/AMk9sf8Aef8A9CNegV/ceR/8irC/9e4f+ko/m3Mv99r/AOOX5sKKKK9o84KKKKACiiigAooooAKKKKACiiigAooooAKKKKACiiigCpqv/INuf+uZ/lXlkP8Aqk/3RXqeq/8AINuf+uZ/lXlkP+qT/dFfhnij/CwnrP8AKJ72U7z+R8x/H/4E+NfE3xQS58GCOLw142tIdH8Zy+esbW9vDIHE6KWBZnjMkJ2gnDAngVP4s+CuqyfEz4l33/CCw+KPCWqeFNL0iy0t9RitFu3gllLxK27dEUVlIYgDIGD6a/jL44fEO3+L/jHwp4S8OeGdS07wvpVrqt3NrWqT2UsqzLIdsZSGRcjym5bA5FYmi/tPeNfidrXhS3+H3hjQXt9Y8Lp4lmj8SajNbPEplMbRK8UUgJyOpUDvX55SeaqjTtGHKorXms7PlnFyakmnyxilt7q011PSfsuZ73v/AMD9TmvD/gr41aP4b8b2Xh3S/Eul6TqdjDpukaV4t8R2up3Wn3Ekmya6SUSsVhiiJIjMrMSo2rU+hfsy/ELwH4jsbKLV9M13w1rPhyTwlqjaLpo01rCFIn+zXTrJcyecyszKdnzfP09Oo0n9rLVfHmg+DLPwb4St7rxx4lN8P7P1LUTHY2KWcvlXEzzrGWdN+Au1MtuHSt3Q/i98Rda1DxH4Im8M+HNL+J2kwW9/DHcancPpF9ZyOVMqTLD5qkFWBQpnIHY8a1MRmtPnUqdOF78y0vp7nM7ycrRkr8197t3QlGk7Wbf9XPO9Q8FfF3xV8HbD4K3vw/sdLs44bfTLvxkurwNZG1iZczQQKfPErKgwrKNrHO6vSf2kPB/ijUdN+Hd54S8OzeK7nw34httRnsYryC2keGOJ1JDzui5yw755rzG//bK8V6f4C8O6ldaZ4P0fWNR8W6h4XuZtY1SW20q1NqHzM1wU3BWaMgEr/EOBXU+JPjp8TtH+CeofETS4vhl4osdKiuru+k0PXrq6t3hiUECCVYMPJkOCrbQPl560qlDMo1qU3Spx9+Vld2lKXuyu+a+trKzS7ApUnFq72X3L5GR4v+F/xF+MWqeMPGGreE4/CN3/AMIde+G9I0A6nBc3N5JOQ5kmkQ+UgBUKo3nqSSK2/wBl/wAMeLvBd1ZabrngXxpocKaYlvNqGveNY9WshIgUbYbYXMpjyc4KqAAMegq7cfG/4laLpvhfSb7wr4b1Lx34tlZtHstM1WcWMFokKyST3UskIddu7G1EbORg11Xwz+LPiXUPHuo+AvHugafofim3sV1O2n0a9e6sb62L7GZGdEdWRsAqy9wQa5cRWx31OdF04eztolJ3SWl0ue8knfWSlrfoi4xp86ld39P+AezaP/yFLX/rov8AOj45f8g3Tf8Arq3/AKDRo/8AyFLX/rov86Pjl/yDdN/66t/6DX0eV/8AJD5l/i/SmeBnXxfL9T5B/ae+MGsfBP4cw6/odjZahfy6hBZLDf7/AC8SEjPykHriuIuv2gPiX8LvFHha2+KHhTQIdB8RXyabBqnh29kc287/AHBIkgyQfbGADz2q7+3L4T1vxl8GbXT9A06/1K//ALZtJNmnWz3EsahjmTaoJwvXPSn+H/2Ubm88RaDrXj74h694+/sWdbuw06+RILaKYY2uyLncR25FfBZdHJ6OUUquOUXKTqJq0nUdlHl5Wnyxs39rR+ex8tHk5bs6f4T/ABj1Tx98V/iZ4WvbKzt7PwteRW1tNAH8yUOCSXyxGeB0ArqPjN8Srb4RfDXXPFNwgmeyh/0e3P8Ay3nY7Yox65YgcV81eFfG2ufBP9oD4wahe/DLx54i0/XNRiks7vQNCkuIXVFOTvJUEc8Yz0NavxYTxp+034q8A6Noegaz4L0OzU+IL268U6NKsaXEblYIJE3BWbgtsDdGBPStKuQ0HmVGrNKGF5YSk7q2lOMprRt3crrbdhyLmT6Hqn7N/wAa9U+Lmh6zb+J9Jh8P+MNEvPs2o6XCTiMMoeNhkk4Kn1PINcR8D/2xrf4ifGDxT8PfEVpaaRqllqFxbaVNAzBLtIpGQo24n95hd3HB544rG07wP8TPhL+0honjDVbhfGWneKov7I1qXw/o8kKWuwAwzyopfgHguSABmuV+Gn7NN78Q/D3xbtdZ07UPC2vr4yutU8O6zc2skEkb5yksZYAvGxAyV4PUcgV6Dy7I+XE4iq4+yqRpuDg2/ZycnGVk7SajJapq/JbqVyw1Z6z4R/ai3aP8W9a8VWttZaX4J1R7GI2St5lwoztBDMfnY7Rxgc1gQ/GP9oS98OjxtbfDjw0PCrQ/bE0OS+l/td7fG4MHz5YJXnG3PtXmPwo/Z78d+PPgv8a/CnjGyuNK8Uatq8d1DdXkLRQXc8eHEiMAFZGZfvLxz+FejW37RnxC03wXH4Tk+Cni+Tx1DaCwWWO0DaS0gTYJftOdoTjPp23d63xGWYGjXqwy+lSrSU4qSlK0VD2cHzR96OkpOV5a8tltcbir+6rnvfwo+Jmk/GDwDpPizRS4stQjLeVJjfE4JV42xxlWBFfU3we/5E2L/rq/86+Mv2Y/hTffBn4O6P4d1WZJ9X3SXd60ZyizSsXZVOOQMgZ9q+zfg9/yJsX/AF1f+dex4dU8NS4qxdPBy5qShNRfePPC34FULe0djuKKKK/qM9EKKKKACiimTMywuyDLhSQPfFAH5m/8FQ/27NV8A38vwp8CXxstSeIHVtRhP7yJWHESHsSOpr8kLm5lvLiSeeV5ppGLPJIxLMT1JJr0j9pjXbrxJ8f/AB9f3rs9zJrFwrl+vyuVx+GMV5nQAUUUUAFFWtK0m81zUILCwtpby8ncJFDCpZnY9AAK/U39ib/glQI/sHjP4v2/PyzWvh0/mDN/8TQB8t/se/8ABPPxv+05fQatfRSeGvA6OPN1W5Qhpx3WFT94+/QV+13wP/Z/8Ffs9eEYNA8HaTHZQqo866YBp7hu7O/c+3Su90vS7PRdPgsbC2is7O3QRxQQoFRFHQADpVqgAooooAKKKKACiiigAooooAKKKKACiiigAooooAKKKKACiiigAooooAKKKKACiiigAooooASv5tv2vP8Ak5r4k/8AYZm/mK/pJr+bb9rz/k5r4k/9hmb+YoA8hqW0tJ7+6it7aJ555WCJHGpZmY9AAO9dJ8Nfhj4l+Lniyz8OeFNJuNX1a6bakMC5x/tMewHqa/aX9iT/AIJu+G/2ebWy8UeL44PEPj4gSAsoe3sD6Rg9WH978qAPnP8AYc/4JWzat9i8b/GG1a3sflms/DbZEkvcNP8A3R/s9T3xX6t6TpNloOm22nabaQ2NhbRiKG3t0CJGo4AAHQVbooAKKKKACiiigAooooAbJ/q2+hr4w8Vf8jRrH/X5N/6Ga+z5P9W30NfGHir/AJGjWP8Ar8m/9DNfiHin/uWG/wAT/I/R+Cv94rf4V+ZlUUUV/OJ+uBRRRQAUUUUAFFFFABRRRQAUUUUAfU3wN/5J7Y/7z/8AoRr0CvP/AIG/8k9sf95//QjXoFf3Hkf/ACKsL/17h/6Sj+bcy/32v/jl+bCiiivaPOCiiigAooooAKKKKACiiigAooooAKKKKACiiigAooooAqar/wAg25/65n+VeWQ/6pP90V6nqv8AyDbn/rmf5V5ZD/qk/wB0V+GeKP8ACwnrP8onvZTvP5HiPiT9kfwV4++Mmv8Ajvxlp1h4qTULGztLXTL+zyLNoN+5w+/59+5cqVGNvfNRfEf9j3wR8VvHUOs+IrK0u9GttA/sOz0ZbTYLQ7yyzxSKw2lQdoULx69q92or8XjnGPhKMoVpJxXKtdlZLTtot1q+p7nsabunHc8EX9mG903wl4Fi0PxhHoXjPwbbSWOneILPRohDLavgNDPab9rBgqElWU7l3DGcVNpP7P8A4y0e41rxMnxM+0fEjVTbxS65caHG1nHaRFitrHaCQbUJYsW8zcTzntXutFN5vjGmpSTv3jF7vmtt8N9eX4b9A9jDt+LPmi9/Y91CPwf4QsdJ8cw2niHQ/EN54ln1a+0NbqG8urkSCUfZvOQIuZTgbmxgfWu7v/g14j8UfBPxd4D8TeMLDULzXbS4s49V07QVso7VJI9v/HuJm3kHJzvGc44r1yiipnGNq8rnJNxfMnyxunfm3te1+m3lYFRhHZfmeWfED4HyeLNN8J3Gj+I5vDPi7wsoXTNdhtVnUAxiORJYGOHjcAZXcCCAQeKT4YfBnVPCvjDU/Gfi/wAWSeM/F99app63SWK2NraWqtu8qGBWbGW+ZmLEnjpivVKK5/7QxPsXQ5vdemyvZu7XNa6V9bXt5Fezjzc1i5o//IUtf+ui/wA6Pjl/yDdN/wCurf8AoNGj/wDIUtf+ui/zo+OX/IN03/rq3/oNfpOV/wDJD5l/i/SmfLZ18Xy/U8eooor+ez48KKKKACiiigAooooAK94+D3/Imxf9dX/nXg9e8fB7/kTYv+ur/wA6/aPCf/ke1P8Ar1L/ANKgdWG+M7iiiiv61PTCiiigAooooA/A/wD4KUfs76j8F/2gtZ1eO1f/AIR3xHO19a3AU7N7HLoT65ya+R6/pt+MnwT8JfHjwZc+GfF+mR6jYTDKMRiSF+zo3YivzL+KH/BFXxBb6tNP4E8Y2N5pjtmO21RGimj9twBVh78fSgD8xq9K+Bf7PPjX9ofxbBoPg/SZLyRmHnXTAiC3Xuzt0Ar7y+Fn/BFPX31aC48feM9Ot9OVgXtNHR5ZXHpuYKB9Rmv0v+DnwP8AB3wH8JweH/B2kQ6bZxgb5AAZZm/vO3UmgDw79j//AIJ8+B/2YbC31W6ij8SeOGQGXVriMFYGxysCn7o/2up9q+rqKKACiiigAooooAKKKKACiiigAooooAKKKKACiiigAooooAKKKKACiiigAooooAKKKKACiiigAooooASvwq1r9j/xz+1N+2F8RrLw/ZtaaLDrkovdauEIt7dcjPP8TY6KK/daqWl6Lp+hxSx6fZQWSTStNIsEYQPI33mOOpPrQB5F+zL+yX4F/Zb8LLp3hmxWfVZUAvdauEH2i5Pfn+Fc/wAI4+te1UUUAFFFFABRRRQAUUUUAFFFFADZP9W30NfH/irQNR/4SbVW+xylWupXUheoLkg/lX2FVZtNtZGLNbxsx6kqK+U4g4cwvEdKnSxU5RUHdctuunVM9vK82rZTOU6MU3JW1v8Ao0fGP9g6j/z5zf8AfNH9g6j/AM+c3/fNfZn9l2f/AD7Rf98ij+y7P/n2i/75FfEf8Qvyj/n9U++P/wAgfSf66Y//AJ9w+5//ACR8Z/2DqP8Az5zf980f2DqP/PnN/wB819mf2XZ/8+0X/fIo/suz/wCfaL/vkUf8Qvyj/n9U++P/AMgH+umP/wCfcPuf/wAkfGf9g6j/AM+c3/fNH9g6j/z5zf8AfNfZn9l2f/PtF/3yKP7Ls/8An2i/75FH/EL8o/5/VPvj/wDIB/rpj/8An3D7n/8AJHxn/YOo/wDPnN/3zR/YOo/8+c3/AHzX2Z/Zdn/z7Rf98ij+y7P/AJ9ov++RR/xC/KP+f1T74/8AyAf66Y//AJ9w+5//ACR8Z/2DqP8Az5zf980f2DqP/PnN/wB819mf2XZ/8+0X/fIo/suz/wCfaL/vkUf8Qvyj/n9U++P/AMgH+umP/wCfcPuf/wAkfGf9g6j/AM+c3/fNH9g6j/z5zf8AfNfZn9l2f/PtF/3yKP7Ls/8An2i/75FH/EL8o/5/VPvj/wDIB/rpj/8An3D7n/8AJHH/AAXtZrLwHZxTxtFICxKt15Ymu7pkcSQqFjUIvoop9frGFw8cHh6eGg7qEVFX3slbU+Hr1pYirOtLeTb+93CiiiuowCiiigAooooAKKKKACiiigAooooAKKKKACiiigAooooAqar/AMg25/65n+VeWQ/6pP8AdFep6r/yDbn/AK5n+VeXQxuYUIVvujt7V+HeKEXKlhLLrP8AKJ72Vbz+QtFO8p/7jflR5T/3G/KvwH2c+x9DdDaKd5T/ANxvyo8p/wC435Uezn2C6G0U7yn/ALjflR5T/wBxvyo9nPsF0Nop3lP/AHG/Kjyn/uN+VHs59gui1o//ACFLX/rov86Pjl/yDdN/66t/6DS6TGy6pakqQPMXt70fHFS2naaACf3rdB7V+sZZFrgfMk19r9IHyedfF8v1PHaKd5Mn9xvyo8mT+435V/PfLLsfHjaKd5Mn9xvyo8mT+435UcsuwDaKd5Mn9xvyo8mT+435UcsuwDaKd5Mn9xvyo8mT+435UcsuwDa94+D3/Imxf9dX/nXhPkyf3G/Kvd/g+pXwfGCMHzX6/Wv2fwoi1ntS6/5dS/8ASoHVhvjO3ooor+tD0wooooAKKKKACiiigAooooAKKKKACiiigAooooAKKKKACiiigAooooAKKKKACiiigAooooAKKKKACiiigAooooAKKKKACiiigAooooAKKKKACiiigAooooAKKKKACiiigAooooAKKKKACiiigAooooAKKKKACiiigAooooAKKKKACiiigAooooAKKKKACiiigAooooAKKKKACiiigAooooAKKKKACiiigBrqJFKsMqRgisZvBujSMWawiLE5JxW3RQBh/wDCFaL/AM+EX/fNH/CFaL/z4Rf981uUUAYf/CFaL/z4Rf8AfNH/AAhWi/8APhF/3zW5RQBh/wDCFaL/AM+EX/fNH/CFaL/z4Rf981uUUAYf/CFaL/z4Rf8AfNH/AAhWi/8APhF/3zW5RQBlWfhfS9PnE1vaRxyDoyirWoaXa6pGI7qFZkHIDCrdFAGL/wAIbo3/AD4Rf980f8Ibo3/PhF/3zW1RQBi/8Ibo3/PhF/3zR/whujf8+EX/AHzW1RQBi/8ACG6N/wA+EX/fNH/CG6N/z4Rf981tUUAYv/CG6N/z4Rf980f8Ibo3/PhF/wB81tUUAYv/AAhujf8APhF/3zWnZ2MGnwCG3jWKMdFXpU9FABRRRQAUUUUAFFFFABRRRQAUUUUAFFFFABRRRQAUUUUAFFFFABRRRQAUUUUAFFFFABRRRQAUUUUAFFFFABRRRQAUUUUAFFFFABRRRQAUUUUAFFFFABRRRQAUUUUAFFFFABRRRQAUUUUAFFFFABRRRQAUUUUAFFFFABRRRQAUUUUAFFFFABRRRQAUUUUAFFFFABRRRQAUUUUAFFFFABRRRQAUUUUAFFFFABRRRQAUUUUAFFFFABRRRQAUUUUAFFFFABRRRQAUUUUAFFFFABRRRQAUUUUAFFFFABRRRQAUUUUAFFFFABRRRQAUUUUAFFFFABRRRQAUUUUAFFFFABRRRQAUUUUAFFFFABRRRQAUUUUAFFFFABRRRQAUUUUAFFFFABRRRQAUUUUAFFFFABRRRQAUUUUAFFFFABRRRQAUUUUAFFFFABRRRQAUUUUAFFFFABRRRQAUUUUAFFFFABRRRQAUUUUAFFFFAH//2Q==;" vertex="1" parent="1">
          <mxGeometry x="520" y="510" width="580.03" height="400" as="geometry" />
        </mxCell>
        <mxCell id="sc4unjQCFMbTbhpWQRbm-26" value="&lt;font&gt;&lt;span style=&quot;font-size: 16px&quot;&gt;Sprint Backlog&lt;/span&gt;&lt;br&gt;&lt;/font&gt;" style="whiteSpace=wrap;html=1;fillColor=#FFF717;" vertex="1" parent="1">
          <mxGeometry x="510" y="460" width="80" height="80" as="geometry" />
        </mxCell>
        <mxCell id="sc4unjQCFMbTbhpWQRbm-27" value="" style="html=1;shadow=0;dashed=0;align=center;verticalAlign=middle;shape=mxgraph.arrows2.twoWayArrow;dy=0.65;dx=22;rotation=-60;" vertex="1" parent="1">
          <mxGeometry x="910" y="400" width="100" height="60" as="geometry" />
        </mxCell>
      </root>
    </mxGraphModel>
  </diagram>
</mxfile>
